<?xml version="1.0" encoding="utf-8"?>
<!-- Generator: Adobe Illustrator 22.0.1, SVG Export Plug-In . SVG Version: 6.00 Build 0)  -->
<svg version="1.1" id="Camada_1" xmlns="http://www.w3.org/2000/svg" xmlns:xlink="http://www.w3.org/1999/xlink" x="0px" y="0px"
	 viewBox="0 0 350 100" style="enable-background:new 0 0 350 100;" xml:space="preserve">
<style type="text/css">
	.st0{fill:#FFFFFF;}
</style>
<g>
	<g>
		<path class="st0" d="M132.5,0.8h7v37.8h16.9v6.3h-24V0.8z"/>
		<path class="st0" d="M163.8,0.8h26.7v6.3h-19.7v12.7h19.4v6.1h-19.4v12.8h19.7v6.3h-26.7V0.8z"/>
		<path class="st0" d="M218.7,20.7H241v2.5c0,3.1-0.5,6-1.6,8.7c-1.1,2.7-2.6,5.1-4.5,7.1c-1.9,2.1-4.2,3.7-6.9,4.8
			c-2.6,1.2-5.6,1.7-8.8,1.7c-3.3,0-6.2-0.6-8.9-1.8c-2.7-1.2-5-2.8-7-4.9c-2-2.1-3.5-4.5-4.6-7.3c-1.1-2.8-1.6-5.7-1.6-8.9
			c0-3.1,0.5-6.1,1.6-8.8c1.1-2.8,2.6-5.2,4.6-7.3c2-2.1,4.3-3.7,7-4.9c2.7-1.2,5.7-1.8,8.9-1.8c2.4,0,4.5,0.3,6.4,0.8
			c1.9,0.5,3.6,1.2,5.1,2.1c1.5,0.9,2.8,1.9,3.9,3c1.1,1.1,2.1,2.3,2.8,3.5l-6.5,3.3c-1.2-1.7-2.8-3.1-4.7-4.3
			c-1.9-1.1-4.3-1.7-7.1-1.7c-2.2,0-4.1,0.4-6,1.3c-1.8,0.8-3.4,2-4.7,3.5c-1.3,1.5-2.3,3.2-3.1,5.2c-0.7,1.9-1.1,4-1.1,6.2
			s0.4,4.3,1.1,6.2c0.7,2,1.7,3.7,3.1,5.2c1.3,1.5,2.9,2.7,4.7,3.5c1.8,0.9,3.8,1.3,6,1.3c2,0,3.9-0.3,5.5-1
			c1.7-0.7,3.1-1.6,4.3-2.7c1.2-1.2,2.2-2.5,2.9-4.1c0.7-1.5,1.1-3.2,1.2-5h-14.5V20.7z"/>
		<path class="st0" d="M247.8,0.8h7v44.1h-7V0.8z"/>
		<path class="st0" d="M261.8,22.8c0-3.2,0.6-6.2,1.7-9c1.1-2.8,2.7-5.2,4.7-7.3c2-2.1,4.3-3.7,7-4.8c2.7-1.2,5.6-1.7,8.7-1.7
			c3.2,0,6.1,0.6,8.8,1.7c2.7,1.2,5,2.8,7,4.8c2,2.1,3.6,4.5,4.6,7.3c1.1,2.8,1.6,5.8,1.6,9c0,3.2-0.5,6.2-1.6,9
			c-1.1,2.8-2.6,5.2-4.6,7.3c-2,2.1-4.3,3.7-7,4.9c-2.7,1.2-5.7,1.7-8.9,1.7c-3.3,0-6.2-0.6-8.9-1.7c-2.7-1.2-5-2.8-7-4.9
			c-2-2.1-3.5-4.5-4.6-7.3C262.3,29,261.8,26,261.8,22.8z M269.1,22.8c0,3,0.6,5.8,1.9,8.2c1.3,2.5,3,4.4,5.2,5.8
			c2.2,1.4,4.8,2.2,7.7,2.2c2.9,0,5.5-0.7,7.7-2.2c2.2-1.4,4-3.4,5.2-5.8c1.3-2.5,1.9-5.2,1.9-8.2c0-3-0.6-5.8-1.9-8.2
			c-1.3-2.4-3-4.4-5.2-5.8c-2.2-1.4-4.8-2.1-7.7-2.1c-2.9,0-5.5,0.7-7.7,2.1c-2.2,1.4-4,3.4-5.2,5.8C269.7,17,269.1,19.8,269.1,22.8
			z"/>
		<path class="st0" d="M318.9,7.4l0.5,0.1v37.4h-7V0.8h9.8l21.3,37.4l-0.4,0.1V0.8h7v44.1h-9.8L318.9,7.4z"/>
	</g>
	<g>
		<g>
			<path class="st0" d="M145.9,100c-2.9,0-5.5-0.4-7.9-1.1c-2.3-0.7-4.2-1.4-5.6-2.2c-1.9-1-2.4-1.4-2.6-1.6
				c-0.3-0.3-0.4-0.8-0.1-1.2l3.7-6c0.2-0.2,0.4-0.4,0.7-0.5c0.3,0,0.6,0,0.8,0.2c0.2,0.1,0.5,0.4,1.4,0.9c0.7,0.4,1.6,0.9,2.6,1.3
				c1,0.5,2.1,0.8,3.4,1.1c1.2,0.3,2.5,0.5,3.8,0.5c2.4,0,4.3-0.5,5.5-1.5c1.2-1,1.7-2.2,1.7-3.8c0-1.2-0.4-2.2-1.1-3
				c-0.8-0.9-1.9-1.8-3.3-2.6c-1.5-0.8-3.2-1.7-5.1-2.5c-2-0.9-3.9-1.9-5.6-3c-1.8-1.2-3.3-2.6-4.3-4.3c-1.1-1.7-1.7-3.8-1.7-6.3
				c0-2.5,0.7-4.6,2.1-6.5c1.4-1.8,3.2-3.2,5.5-4.2c2.2-1,4.7-1.5,7.4-1.5c2.7,0,5,0.3,7,0.9c2,0.6,3.6,1.3,4.7,2
				c1.6,0.9,2,1.2,2.2,1.4c0.4,0.3,0.4,0.9,0.2,1.3l-3.5,5.7c-0.2,0.3-0.4,0.4-0.7,0.5c-0.3,0-0.6,0-0.8-0.2
				c-0.2-0.2-0.6-0.5-1.7-1.1c-0.8-0.5-1.8-0.9-2.9-1.3c-1.1-0.4-2.4-0.6-3.8-0.6c-2.1,0-3.7,0.4-4.9,1.2c-1.1,0.7-1.6,1.6-1.6,3
				c0,0.9,0.3,1.6,0.8,2.3c0.6,0.7,1.6,1.5,2.8,2.1c1.3,0.7,2.9,1.4,4.7,2.2c1.6,0.7,3.2,1.4,4.7,2.3c1.5,0.9,3,1.9,4.2,3.1
				c1.3,1.2,2.3,2.6,3,4.2c0.8,1.6,1.1,3.4,1.1,5.5c0,2.2-0.5,4.1-1.4,5.8c-0.9,1.7-2.1,3.1-3.7,4.2c-1.5,1.1-3.3,2-5.3,2.6
				C150.2,99.7,148.1,100,145.9,100z M131.8,94.1c0.3,0.2,0.8,0.5,1.5,0.9c1.3,0.7,3.1,1.4,5.2,2.1c2.1,0.6,4.6,1,7.3,1
				c2,0,4-0.3,5.7-0.8c1.8-0.5,3.3-1.3,4.7-2.3c1.3-1,2.4-2.2,3.1-3.6c0.7-1.4,1.1-3,1.1-4.9c0-1.8-0.3-3.3-1-4.6
				c-0.6-1.3-1.5-2.6-2.6-3.6c-1.1-1.1-2.4-2-3.8-2.8c-1.4-0.8-2.9-1.5-4.5-2.2c-1.9-0.8-3.5-1.5-4.9-2.3c-1.4-0.8-2.5-1.7-3.3-2.6
				c-0.9-1-1.3-2.2-1.3-3.6c0-2,0.8-3.6,2.5-4.7c1.5-1,3.5-1.5,6-1.5c1.6,0,3.1,0.2,4.4,0.7c1.3,0.4,2.4,1,3.3,1.5
				c0.4,0.2,0.7,0.4,1,0.6l2.4-4c-0.3-0.2-0.6-0.4-1.2-0.7c-1-0.6-2.5-1.2-4.3-1.8c-1.8-0.6-4-0.8-6.4-0.8c-2.4,0-4.6,0.4-6.6,1.3
				c-1.9,0.9-3.5,2.1-4.7,3.6c-1.2,1.5-1.7,3.2-1.7,5.3c0,2,0.5,3.8,1.4,5.2c0.9,1.4,2.2,2.7,3.8,3.7c1.6,1.1,3.4,2,5.3,2.9
				c1.9,0.8,3.7,1.7,5.3,2.5c1.6,0.9,2.9,1.9,3.9,3c1,1.2,1.6,2.7,1.6,4.3c0,2.1-0.8,3.9-2.4,5.3c-1.6,1.3-3.8,2-6.8,2
				c-1.5,0-2.9-0.2-4.3-0.5c-1.4-0.3-2.6-0.8-3.7-1.3c-1.1-0.5-2-1-2.8-1.4c-0.3-0.2-0.5-0.3-0.7-0.4L131.8,94.1z"/>
		</g>
		<g>
			<path class="st0" d="M205.8,99.2h-7.5c-0.4,0-0.8-0.3-0.9-0.7l-3.4-9.4h-16.8l-3.4,9.4c-0.1,0.4-0.5,0.7-0.9,0.7h-7.5
				c-0.3,0-0.6-0.2-0.8-0.4c-0.2-0.3-0.2-0.6-0.1-0.9l16.7-44.1c0.1-0.4,0.5-0.6,0.9-0.6h7.2c0.4,0,0.8,0.3,0.9,0.6l16.6,44.1
				c0.1,0.3,0.1,0.7-0.1,0.9C206.5,99,206.2,99.2,205.8,99.2z M199.1,97.2h5.3l-15.9-42.1h-5.8l-15.9,42.1h5.4l3.4-9.4
				c0.1-0.4,0.5-0.7,0.9-0.7h18.2c0.4,0,0.8,0.3,0.9,0.7L199.1,97.2z M192.4,82.9h-13.6c-0.3,0-0.6-0.2-0.8-0.4
				c-0.2-0.3-0.2-0.6-0.1-0.9l6.7-19.2c0.1-0.4,0.5-0.7,0.9-0.7h0.1c0.4,0,0.8,0.3,0.9,0.7l6.8,19.2c0.1,0.3,0.1,0.6-0.1,0.9
				C193.1,82.7,192.8,82.9,192.4,82.9z M180.2,80.9H191l-5.4-15.3L180.2,80.9z"/>
		</g>
		<g>
			<path class="st0" d="M225.7,99.2h-15.4c-0.6,0-1-0.4-1-1V54.1c0-0.6,0.4-1,1-1h13.2c2.5,0,4.9,0.3,7.1,1c2.3,0.7,4.2,1.9,5.6,3.6
				c1.5,1.7,2.2,4.1,2.2,7c0,2-0.4,3.8-1.1,5.4c-0.8,1.6-1.7,2.9-2.9,3.9c-0.3,0.3-0.6,0.5-0.9,0.7c0.1,0.1,0.2,0.1,0.4,0.2
				c1.1,0.5,2.2,1.3,3.2,2.2c1,1,1.9,2.2,2.5,3.6c0.6,1.4,1,3.1,1,5c0,2.6-0.6,4.9-1.7,7c-1.1,2-2.8,3.7-5,4.8
				C231.6,98.6,228.9,99.2,225.7,99.2z M211.3,97.2h14.4c2.9,0,5.3-0.5,7.2-1.5c1.8-1,3.2-2.3,4.2-4c0.9-1.7,1.4-3.7,1.4-6
				c0-1.6-0.3-3-0.8-4.2c-0.5-1.2-1.2-2.2-2-2.9c-0.8-0.8-1.7-1.4-2.7-1.8c-0.9-0.4-1.8-0.7-2.6-0.8c-0.5,0-0.9-0.5-0.9-1
				s0.3-0.9,0.8-1c0.9-0.2,1.9-0.7,2.8-1.4c1-0.8,1.8-1.9,2.4-3.2c0.6-1.3,1-2.8,1-4.5c0-2.5-0.6-4.4-1.7-5.7
				c-1.2-1.4-2.8-2.4-4.7-3c-2-0.6-4.2-0.9-6.5-0.9h-12.2V97.2z M224.6,93.4h-7.3c-0.6,0-1-0.4-1-1V78.5c0-0.6,0.4-1,1-1h6.9
				c2.8,0,5,0.7,6.5,2.1c1.6,1.4,2.4,3.3,2.4,5.7c0,1.4-0.3,2.8-0.8,4c-0.5,1.3-1.5,2.3-2.7,3C228.3,93.1,226.7,93.4,224.6,93.4z
				 M218.3,91.4h6.3c1.7,0,3.1-0.3,4-0.8c0.9-0.5,1.5-1.2,1.9-2.1c0.4-1,0.6-2,0.6-3.2c0-1.8-0.6-3.2-1.7-4.2
				c-1.2-1-2.9-1.6-5.2-1.6h-5.9V91.4z M223.6,73.9h-6.3c-0.6,0-1-0.4-1-1v-13c0-0.6,0.4-1,1-1h5.6c2.5,0,4.5,0.5,6,1.5
				c1.7,1.1,2.5,3,2.5,5.7c0,1.3-0.3,2.6-0.8,3.7c-0.6,1.2-1.4,2.2-2.6,3C226.8,73.5,225.3,73.9,223.6,73.9z M218.3,71.9h5.3
				c1.3,0,2.4-0.3,3.3-0.8c0.8-0.5,1.5-1.2,1.9-2.1c0.4-0.9,0.6-1.9,0.6-2.9c0-2-0.5-3.3-1.6-4c-1.2-0.8-2.8-1.2-4.9-1.2h-4.6V71.9z
				"/>
		</g>
		<g>
			<path class="st0" d="M273,99.2h-26.7c-0.6,0-1-0.4-1-1V54.1c0-0.6,0.4-1,1-1H273c0.6,0,1,0.4,1,1v6.3c0,0.6-0.4,1-1,1h-18.7v10.7
				h18.4c0.6,0,1,0.4,1,1v6.1c0,0.6-0.4,1-1,1h-18.4v10.8H273c0.6,0,1,0.4,1,1v6.3C274,98.8,273.6,99.2,273,99.2z M247.3,97.2H272
				v-4.3h-18.7c-0.6,0-1-0.4-1-1V79.2c0-0.6,0.4-1,1-1h18.4v-4.1h-18.4c-0.6,0-1-0.4-1-1V60.4c0-0.6,0.4-1,1-1H272v-4.3h-24.7V97.2z
				"/>
		</g>
		<g>
			<path class="st0" d="M312.1,99.2h-7.9c-0.4,0-0.7-0.2-0.9-0.5l-9.7-17.7h-4.1v17.3c0,0.6-0.4,1-1,1h-7c-0.6,0-1-0.4-1-1V54.1
				c0-0.6,0.4-1,1-1h16.2c2.6,0,4.9,0.5,7.1,1.6c2.1,1.1,3.8,2.7,5.1,4.8c1.2,2.1,1.9,4.6,1.9,7.6c0,2.9-0.6,5.4-1.7,7.3
				c-1.1,1.9-2.5,3.4-4.1,4.4c-1.1,0.6-2.1,1.1-3.1,1.4L313,97.7c0.2,0.3,0.2,0.7,0,1S312.5,99.2,312.1,99.2z M304.8,97.2h5.6
				l-10-17.3c-0.2-0.3-0.2-0.7,0-1c0.2-0.3,0.5-0.5,0.8-0.5c1.1-0.1,2.3-0.6,3.7-1.4c1.3-0.8,2.5-2,3.4-3.7c1-1.6,1.4-3.7,1.4-6.3
				c0-2.6-0.5-4.8-1.6-6.5c-1.1-1.8-2.5-3.1-4.3-4c-1.8-0.9-3.9-1.4-6.1-1.4h-15.2v42.1h5V79.9c0-0.6,0.4-1,1-1h5.7
				c0.4,0,0.7,0.2,0.9,0.5L304.8,97.2z M295.2,75.9h-6.7c-0.6,0-1-0.4-1-1v-15c0-0.6,0.4-1,1-1h6.7c2.6,0,4.7,0.6,6.5,1.9
				c1.9,1.3,2.8,3.5,2.8,6.6c0,3-0.9,5.2-2.8,6.6C299.9,75.2,297.7,75.9,295.2,75.9z M289.5,73.9h5.7c2.1,0,3.9-0.5,5.4-1.6
				c1.3-1,2-2.6,2-5c0-2.4-0.6-4-2-4.9c-1.4-1-3.2-1.5-5.3-1.5h-5.7V73.9z"/>
		</g>
		<g>
			<path class="st0" d="M332.7,100c-2.9,0-5.5-0.4-7.9-1.1c-2.3-0.7-4.2-1.4-5.6-2.2c-1.9-1-2.4-1.4-2.6-1.6
				c-0.3-0.3-0.4-0.8-0.1-1.2l3.7-6c0.2-0.2,0.4-0.4,0.7-0.5s0.6,0,0.8,0.2c0.2,0.1,0.5,0.4,1.4,0.9c0.7,0.4,1.6,0.9,2.6,1.3
				c1,0.5,2.1,0.8,3.4,1.1c1.2,0.3,2.5,0.5,3.8,0.5c2.4,0,4.3-0.5,5.5-1.5c1.2-1,1.7-2.2,1.7-3.8c0-1.2-0.4-2.2-1.1-3
				c-0.8-0.9-1.9-1.8-3.3-2.6c-1.5-0.8-3.2-1.7-5.1-2.5c-2-0.9-3.9-1.9-5.6-3c-1.8-1.2-3.3-2.6-4.4-4.3c-1.1-1.7-1.7-3.8-1.7-6.3
				c0-2.5,0.7-4.6,2.1-6.5c1.4-1.8,3.2-3.2,5.5-4.2c2.2-1,4.7-1.5,7.4-1.5c2.7,0,5,0.3,7,0.9c2,0.6,3.6,1.3,4.7,2
				c1.6,0.9,2,1.2,2.2,1.4c0.4,0.3,0.4,0.9,0.2,1.3l-3.5,5.7c-0.2,0.3-0.4,0.4-0.7,0.5c-0.3,0-0.6,0-0.8-0.2
				c-0.2-0.2-0.6-0.5-1.7-1.1c-0.8-0.5-1.8-0.9-2.9-1.3c-1.1-0.4-2.4-0.6-3.8-0.6c-2.1,0-3.7,0.4-4.9,1.2c-1.1,0.7-1.6,1.6-1.6,3
				c0,0.9,0.3,1.6,0.8,2.3c0.6,0.7,1.6,1.5,2.8,2.1c1.3,0.7,2.9,1.4,4.7,2.2c1.6,0.7,3.2,1.4,4.7,2.3c1.5,0.9,3,1.9,4.2,3.1
				c1.3,1.2,2.3,2.6,3,4.2c0.8,1.6,1.1,3.5,1.1,5.5c0,2.2-0.5,4.1-1.4,5.8c-0.9,1.7-2.1,3.1-3.7,4.2c-1.5,1.1-3.3,2-5.3,2.6
				C337,99.7,334.9,100,332.7,100z M318.7,94.1c0.3,0.2,0.8,0.5,1.5,0.9c1.3,0.7,3.1,1.4,5.2,2.1c2.1,0.6,4.6,1,7.3,1
				c2,0,4-0.3,5.7-0.8c1.8-0.5,3.3-1.3,4.7-2.3c1.3-1,2.4-2.2,3.1-3.6c0.7-1.4,1.1-3,1.1-4.9c0-1.8-0.3-3.3-1-4.6
				c-0.6-1.3-1.5-2.6-2.6-3.6c-1.1-1.1-2.4-2-3.8-2.8c-1.4-0.8-2.9-1.5-4.5-2.2c-1.9-0.8-3.5-1.5-4.9-2.3c-1.4-0.8-2.5-1.7-3.3-2.6
				c-0.9-1-1.3-2.2-1.3-3.6c0-2,0.8-3.6,2.5-4.7c1.5-1,3.5-1.5,6-1.5c1.6,0,3.1,0.2,4.4,0.7c1.3,0.4,2.4,1,3.3,1.5
				c0.4,0.2,0.7,0.4,1,0.6l2.4-4c-0.3-0.2-0.6-0.4-1.2-0.7c-1-0.6-2.5-1.2-4.3-1.8c-1.8-0.6-4-0.8-6.4-0.8c-2.4,0-4.6,0.4-6.6,1.3
				c-1.9,0.9-3.5,2.1-4.7,3.6c-1.2,1.5-1.7,3.2-1.7,5.3s0.5,3.8,1.4,5.2c0.9,1.4,2.2,2.7,3.8,3.7c1.6,1.1,3.4,2,5.3,2.9
				c1.9,0.8,3.7,1.7,5.3,2.5c1.6,0.9,2.9,1.9,3.9,3c1,1.2,1.6,2.7,1.6,4.3c0,2.1-0.8,3.9-2.4,5.3c-1.6,1.3-3.8,2-6.8,2
				c-1.5,0-2.9-0.2-4.3-0.5c-1.4-0.3-2.6-0.8-3.7-1.3c-1.1-0.5-2-1-2.8-1.4c-0.3-0.2-0.5-0.3-0.7-0.4L318.7,94.1z"/>
		</g>
	</g>
</g>
<g>
	<path class="st0" d="M117.5,100H0c0,0,0,0,0,0c0,0,0,0,0,0C19.5,66.7,39,33.4,58.5,0.2c0-0.1,0.1-0.1,0.2-0.2
		C78.3,33.3,97.9,66.6,117.5,100 M58.6,4.3C40.3,35.6,22.2,66.7,4,98h110C95.5,66.7,77,35.6,58.6,4.3"/>
	<path class="st0" d="M104.6,87.1c-0.7-1-1.4-1.9-2.1-2.9c-0.7-1-1.4-1.9-2.1-2.9c-0.7-0.9-1.4-1.9-2.2-2.8c0,0.2,0.1,0.3,0.2,0.4
		c2.6,3.5,5.2,7,7.8,10.6c0.2,0.3,0.4,0.6,0.5,0.9c-1.4-1.4-2.8-2.9-4.2-4.4c-1.4-1.5-2.8-3-4.2-4.5c-1.4-1.5-2.8-3-4.2-4.4
		c0,0.2,0.1,0.3,0.2,0.4c1.9,2,3.7,4.1,5.6,6.1c2.5,2.7,4.9,5.3,7.4,8c0.3,0.3,0.5,0.7,0.7,1.1c-5.7-5-11.4-9.9-17.2-14.9
		c0,0.2,0.2,0.3,0.3,0.4c1.5,1.3,3,2.6,4.5,3.9c4.3,3.8,8.5,7.6,12.8,11.3c0.2,0.2,0.4,0.4,0.5,0.7c-6.9-4.9-13.8-9.8-20.8-14.7
		c0,0.2,0.2,0.3,0.3,0.3c2.4,1.8,4.9,3.5,7.3,5.3c4.4,3.2,8.9,6.4,13.3,9.6c0.2,0.1,0.3,0.2,0.4,0.5c-2.1-1.2-4.2-2.4-6.2-3.6
		c-2-1.2-4.1-2.3-6.1-3.5c-2.1-1.2-4.1-2.4-6.2-3.5c-2-1.2-4.1-2.3-6.2-3.5c0.1,0.3,0.2,0.4,0.4,0.4c0.8,0.5,1.5,0.9,2.3,1.3
		c7.2,4.1,14.4,8.3,21.5,12.4c0.1,0.1,0.3,0.1,0.4,0.3c-0.2,0.1-0.4,0-0.6-0.1c-2.4-1.1-4.9-2.2-7.3-3.3c-5.3-2.4-10.7-4.8-16-7.1
		c-0.2-0.1-0.3-0.2-0.5-0.1c2.5,1.2,5.1,2.4,7.7,3.6c2.6,1.2,5.1,2.3,7.7,3.5c2.6,1.2,5.2,2.3,7.8,3.5c-0.3,0.2-0.6,0-0.9,0
		c-2.1-0.7-4.3-1.4-6.4-2.1c-5.2-1.7-10.4-3.3-15.6-5c-0.1,0-0.3-0.1-0.4,0c7.2,2.4,14.3,4.8,21.5,7.2c-0.3,0.1-0.5,0.1-0.8,0
		c-4-0.8-8-1.7-12-2.5c-2.4-0.5-4.8-1-7.3-1.5c-0.1,0-0.2,0-0.4,0c2,0.5,4,0.9,6,1.4c2,0.4,4.1,0.9,6.1,1.3c2,0.4,4.1,0.9,6.1,1.4
		c-1,0.1-2,0-3-0.1c-2-0.2-4.1-0.5-6.1-0.7c-1.9-0.2-3.8-0.4-5.6-0.6c-0.1,0-0.2,0-0.4,0.1c1.2,0.2,2.4,0.3,3.6,0.5
		c1.2,0.1,2.4,0.3,3.6,0.4c1.2,0.1,2.4,0.3,3.5,0.5h-23c-0.1-0.1,0-0.2,0.1-0.3c1.3-2.6,2.1-5.3,2.9-8.1c0.2-0.8,0.2-1.7-0.1-2.6
		c-0.6-1.8-1.5-3.4-2.6-4.9c-0.9-1.2-1.9-2.4-3-3.5c-0.8-0.8-1.6-1.5-2.4-2.3c-0.1-0.1-0.2-0.1-0.2-0.3c0.5,0.1,1.1,0.2,1.6,0.4
		c2.4,0.7,4.9,1.2,7.4,1.5c1,0.1,2.1,0.2,3.2,0.2c1.6,0,3-0.5,4.4-1.4c1-0.6,1.9-1.3,2.9-1.9c0.6-0.4,1.1-0.8,1.6-1.2
		c0.6-0.6,1.3-1.1,2.1-1.6C97.9,75.6,101.3,81.4,104.6,87.1C104.7,87.1,104.6,87.1,104.6,87.1"/>
	<path class="st0" d="M18.7,95.7c3.3-0.4,6.5-0.7,9.8-1.1c0-0.2-0.1-0.2-0.2-0.2c-1.3,0.1-2.5,0.3-3.8,0.4c-1.4,0.1-2.7,0.3-4.1,0.4
		c-1.4,0.1-2.8,0.3-4.2,0.4c-0.6,0.1-1.2,0.1-1.8,0c2.9-0.6,5.8-1.3,8.7-1.9c2.9-0.6,5.8-1.3,8.7-1.9c-0.1-0.1-0.3-0.1-0.4,0
		c-4,0.8-7.9,1.7-11.9,2.5c-2.2,0.5-4.4,0.9-6.6,1.4c-0.4,0.1-0.9,0.1-1.3,0.1c0.1-0.2,0.2-0.2,0.4-0.2c6.3-2,12.5-4.1,18.8-6.1
		c0.6-0.2,1.2-0.4,1.8-0.6c0.1,0,0.3-0.1,0.4-0.2c-0.2-0.1-0.4,0.1-0.6,0.1c-2.5,0.8-5,1.6-7.5,2.4c-4.7,1.5-9.4,3-14.1,4.5
		c-0.3,0.1-0.6,0.2-0.9,0c7.7-3.4,15.3-6.8,23-10.2c0,0,0-0.1,0-0.1c-0.2,0-0.4,0.1-0.5,0.2c-2,0.9-4,1.7-6,2.6
		c-5.7,2.5-11.4,5-17.1,7.4c-0.2,0.1-0.4,0.2-0.7,0.1c2.8-1.6,5.5-3.1,8.2-4.6c2.7-1.5,5.5-3.1,8.2-4.6c2.7-1.5,5.4-3.1,8.1-4.6
		c-0.1-0.2-0.2-0.1-0.3-0.1c-0.3,0.1-0.5,0.3-0.8,0.4c-6.4,3.5-12.7,7.1-19.1,10.7c-1.4,0.8-2.8,1.6-4.2,2.3
		c-0.1,0.1-0.2,0.2-0.4,0.2c0-0.3,0.3-0.4,0.4-0.5c2.7-1.9,5.4-3.8,8.1-5.7c4.1-2.9,8.3-5.9,12.4-8.8c0.2-0.1,0.4-0.2,0.5-0.5
		c-1,0.6-2,1.3-3,2c-1,0.7-2,1.4-2.9,2c-1,0.7-2,1.4-3,2.1c-1,0.7-2,1.4-2.9,2c-1,0.7-2,1.4-3,2.1c-1,0.7-2,1.4-2.9,2.1
		c-1,0.7-2,1.4-3,2.1c0.1-0.4,0.3-0.6,0.5-0.8c3.5-3.1,7-6.2,10.5-9.3c2.2-1.9,4.4-3.9,6.6-5.9c0.1-0.1,0.2-0.2,0.3-0.5
		c-1.2,1-2.3,2-3.5,3c-1.1,1-2.2,2-3.4,2.9c-1.1,1-2.3,2-3.4,3c-1.1,1-2.2,2-3.4,2.9c-1.1,1-2.2,2-3.4,2.9c0.1-0.3,0.3-0.6,0.5-0.9
		c3.1-3.4,6.2-6.8,9.3-10.2c1.2-1.3,2.4-2.7,3.7-4c0.1-0.1,0.2-0.2,0.2-0.4c-4.1,4.5-8.3,8.9-12.4,13.3c-0.1,0-0.1-0.1-0.1-0.1
		c0.4-0.7,0.8-1.4,1.3-2.1c2.3-3,4.6-6.1,6.9-9.2c0.1-0.2,0.3-0.3,0.3-0.5c-0.1,0,0,0,0,0c0,0,0,0,0,0c0,0,0,0,0,0
		c-2,2.6-4.1,5.3-6.2,7.9c3.7-6.4,7.5-12.8,11.2-19.2c0.2,0,0.2,0.2,0.3,0.3c1.5,2.4,3.5,4.4,5.4,6.4c0.7,0.8,1.7,1.1,2.8,1.3
		c1.7,0.2,3.3,0.3,5,0.1c1.5-0.2,3-0.4,4.5-0.8c1.1-0.3,2.2-0.7,3.3-1c0.2-0.1,0.4-0.1,0.6-0.2c0,0.1-0.1,0.2-0.2,0.2
		c-1.9,1.8-3.8,3.8-5.5,5.8c-0.9,1.1-1.8,2.3-2.5,3.6c-0.8,1.4-1.1,2.9-1,4.6c0.1,1.1,0.1,2.2,0.1,3.3c0,0.7,0.1,1.5,0.2,2.2
		c0.1,0.7,0.2,1.4,0.3,2.1c0,0.3,0,0.3-0.3,0.3c-0.1,0-0.2,0-0.3,0c-6,0-12,0-18,0c-0.2,0-0.4,0-0.6,0
		C18.7,95.7,18.7,95.7,18.7,95.7"/>
	<path class="st0" d="M55.6,14.3C53.8,20.1,51.8,26,50,31.8c0,0,0,0,0,0c0.2-0.1,0.2-0.3,0.2-0.5c1.6-4.9,3.2-9.8,4.8-14.7
		c0.4-1.2,0.8-2.4,1.2-3.7c0.1-0.4,0.3-0.7,0.6-1c-0.5,2.5-1.1,4.9-1.6,7.4c-0.5,2.5-1.1,5-1.6,7.5c-0.5,2.5-1.1,4.9-1.5,7.4
		c0.2-0.1,0.2-0.3,0.2-0.4c0.7-3.2,1.4-6.4,2.1-9.6c0.9-4.3,1.9-8.7,2.8-13c0.1-0.3,0.1-0.6,0.4-0.9C56.9,19,56,27.4,55,35.8
		c0.2,0,0.2-0.1,0.2-0.2c0.2-1.9,0.4-3.7,0.7-5.6c0.3-2.3,0.5-4.6,0.8-6.9c0.2-2,0.5-4,0.7-6c0.3-2.3,0.5-4.6,0.8-6.9
		c0-0.3,0-0.6,0.2-0.9c0.1,0.2,0.1,0.3,0.1,0.4c-0.1,8.2-0.2,16.5-0.3,24.7c0,1,0,1.9,0,2.9c0,0.1,0,0.3,0.1,0.5
		c0.1-0.2,0.1-0.4,0.1-0.6c0-1.3,0.1-2.5,0.1-3.8c0.1-6.4,0.2-12.8,0.3-19.2c0-1.4,0-2.9,0.1-4.3c0-0.2,0-0.3,0-0.5
		C59,9.7,59,9.9,59,10c0.1,1.5,0.2,2.9,0.4,4.4c0.2,2.3,0.4,4.6,0.6,6.9c0.2,2.2,0.4,4.4,0.6,6.7c0.2,2.5,0.4,5,0.7,7.4
		c0,0.1,0.1,0.3,0.1,0.5c0.1-0.4-0.4-7-0.9-12.7c-0.4-4.2-0.7-8.4-1.1-12.7c0.3,0.2,0.3,0.5,0.4,0.7c0.5,2.4,0.9,4.7,1.4,7.1
		c1,5.2,2.1,10.4,3.2,15.7c0,0.1,0,0.2,0.1,0.3c0-0.1,0,0,0,0c0,0,0,0,0,0c0,0,0-0.1,0-0.1c0,0,0-0.1,0-0.1
		c-1.4-7.3-2.8-14.6-4.2-21.9c0,0,0,0,0-0.1c0.2,0.2,0.3,0.5,0.4,0.8c0.7,2.3,1.4,4.6,2.2,6.9c1.2,4,2.5,7.9,3.7,11.9
		c0,0.1,0.1,0.3,0.2,0.4c-0.4-1.5-0.9-3-1.3-4.5c-0.5-1.5-0.9-3-1.4-4.5c-0.5-1.5-0.9-3-1.4-4.6c-0.5-1.5-0.9-3-1.3-4.5
		c0.3,0.5,0.6,0.9,0.8,1.4c1.4,3.4,2.9,6.9,4.3,10.3c0.3,0.8,0.6,1.5,1,2.3c0-0.1,0,0,0-0.1c0,0,0,0,0,0c0,0,0-0.1,0-0.1
		c-1.5-3.6-2.9-7.2-4.4-10.8c0.3,0.2,11.4,18.9,11.6,19.6c-0.1,0.1-0.2,0.1-0.3,0.1c-2,0.1-4,0.5-6,1c-0.8,0.2-1.6,0.4-2.4,0.6
		c-0.9,0.3-1.7,0.7-2.3,1.5c-1.2,1.4-2.1,3-2.8,4.7c-0.9,2.1-1.6,4.2-2,6.5c-0.1,0.3-0.1,0.6-0.2,0.9c0,0,0,0.1-0.1,0.1
		c-0.2-0.6-0.3-1.2-0.5-1.8c-0.6-2.5-1.4-4.9-2.4-7.3c-0.3-0.8-0.7-1.5-1.1-2.2c-0.8-1.4-1.9-2.4-3.4-3.2c-1-0.5-2.1-1.1-3.1-1.6
		c-0.5-0.3-1.1-0.5-1.6-0.7c-0.7-0.2-1.4-0.6-2.1-0.9c-0.3-0.2-0.3-0.2-0.1-0.5c1.1-1.9,2.2-3.8,3.3-5.7c2-3.4,3.9-6.7,5.9-10.1
		c0.1-0.1,0.1-0.3,0.3-0.4c-1.5,3.5-3.1,6.9-4.5,10.3c0.2,0,0.2-0.2,0.3-0.3c1.3-2.9,2.6-5.8,3.9-8.7c0.6-1.2,1.1-2.5,1.7-3.7
		C55.3,14.6,55.4,14.4,55.6,14.3"/>
	<path class="st0" d="M70.1,91.7c-0.1-0.1-0.1-0.2,0-0.3c0.4-1.2,0.6-2.5,0.9-3.7c0.1-0.3,0.1-0.6,0.2-1c0.1-0.8-0.2-1.5-0.7-2
		c-0.8-0.8-1.7-1.6-2.6-2.3c-0.9-0.7-1.8-1.5-2.6-2.2c-0.2-0.2-0.4-0.3-0.6-0.4c-0.2-0.2-0.4-0.3-0.5-0.6c-0.1-0.2-0.2-0.5-0.3-0.7
		c-0.2,0.1-0.2,0.3-0.3,0.4c-0.5,1-1,2.1-1.5,3.1c-0.2,0.5-0.5,0.9-0.7,1.4c-0.1,0.2-0.1,0.3,0.1,0.5c0.1,0.2,0.3,0.3,0.4,0.6
		c-0.3,0.1-0.4-0.1-0.5-0.2c-0.3-0.2-0.2-0.2-0.4,0c-0.3,0.4-0.3,0.7-0.1,1.1c0.2,0.3,0.3,0.7,0.4,1.1c0,0.1,0.2,0.3,0.1,0.5
		c-0.3-0.2-0.3-0.5-0.5-0.8c-0.1-0.3-0.2-0.6-0.4-0.8c-0.7,0.8-0.7,1.4-0.2,2.3c1.2,2.1,2.5,4.2,3.9,6.2c0.5,0.7,0.9,1.4,1.4,2
		c0,0,0,0.1,0.1,0.2c-0.2,0.1-0.2,0-0.3-0.1c-0.3-0.4-0.6-0.8-0.9-1.2c-1.4-2-2.7-4.1-3.9-6.2c-0.1-0.2-0.3-0.4-0.4-0.7
		c-0.1,0.1-0.1,0.2-0.1,0.3c0,1.3,0.3,2.4,0.9,3.5c0.7,1.4,1.5,2.7,2.4,4c0.1,0.1,0.2,0.2,0.2,0.3c-0.2,0.1-0.2-0.1-0.3-0.2
		c-0.5-0.7-0.9-1.3-1.3-2.1c-0.5-1-1.2-1.9-1.6-3c-0.1,0.1-0.1,0.3-0.1,0.4c0.1,1.4,0.2,2.8,0.2,4.2c0,0.2,0,0.3,0,0.5
		c0,0.2-0.1,0.3-0.2,0.3c-0.9,0-1.9,0-2.8,0c-0.2,0-0.3-0.1-0.2-0.3c0-0.1,0-0.3,0-0.4c0.1-1.4,0.2-2.8,0.2-4.2c0-0.1,0-0.2-0.1-0.3
		c-1,1.8-2,3.5-3.3,5.2c0,0-0.1,0-0.1,0c-0.1-0.1,0-0.2,0.1-0.2c0.6-1,1.3-2,1.9-3c0.5-0.8,1-1.6,1.4-2.5c0-0.1,0.1-0.2,0.1-0.3
		c0-0.7,0.1-1.3,0.1-2c-0.9,1.4-1.8,2.9-2.8,4.3c-1.6,2.1-2.9,3.6-3.3,3.8c0-0.2,0.1-0.2,0.2-0.3c1.2-1.3,2.4-2.7,3.4-4.2
		c0.9-1.3,1.7-2.7,2.5-4.1c0.1-0.2,0.1-0.3,0.1-0.5c0.1-1.1,0.1-2.1,0.2-3.2c0,0,0-0.1-0.1-0.2c-0.6,1.1-1,2.2-1.6,3.3
		c-0.1-0.3,0.1-0.6,0.2-0.9c0.1-0.3,0.2-0.6,0.3-0.9c0.1-0.3,0.2-0.6,0.4-1c0.1-0.3,0.2-0.6,0.3-0.9c0,0-0.1,0-0.1-0.1
		c-0.6,0.5-1.1,1-1.7,1.5c-0.1-0.2,0-0.3,0.1-0.4c0.4-0.5,0.8-1,1.3-1.6c0.1-0.1,0.1-0.2,0.2-0.3c0-0.1,0.1-0.1,0-0.2
		c-0.1-0.1-0.1-0.1-0.2-0.1c-0.3,0.1-0.6,0.2-0.9,0.4c-0.2,0.1-0.3,0.2-0.5,0.2c0-0.2,0.1-0.2,0.2-0.3c0.3-0.2,0.5-0.3,0.8-0.5
		c0.1-0.1,0.2-0.2,0.1-0.3c-0.1-0.3,0-0.5,0.1-0.7c0.2-0.4,0.4-0.9,0.4-1.4c0-0.3,0-0.3-0.3-0.3c-0.7,0-1.3,0-2,0.2
		c-0.1,0-0.1,0-0.2,0.1c-0.4,0.3-0.9,0.6-1.3,0.9c-0.2,0.1-0.4,0.3-0.4,0.6c0,0.5-0.3,0.8-0.7,1c-1.4,1-2.8,1.9-4.3,2.9
		c-0.9,0.6-1.7,1.2-2.5,1.8c-0.3,0.2-0.4,0.5-0.4,0.8c-0.1,0.8,0.1,1.5,0.3,2.2c0.1,0.7,0.3,1.5,0.5,2.2c0,0.1,0,0.1,0,0.2
		c0,0,0,0.1-0.1,0.1c0,0-0.1,0-0.1,0c0-0.1-0.1-0.2-0.1-0.3c-0.3-1.2-0.6-2.3-0.7-3.5c0-0.2,0-0.4,0-0.6c0-0.5,0.2-1,0.6-1.3
		c1.1-0.8,2.1-1.6,3.3-2.3c0.2-0.1,0.4-0.3,0.7-0.5c-0.6-0.2-0.9-0.6-1.2-1.1c-0.3-0.5-0.6-0.9-0.7-1.4c0.1-0.1,0.2,0,0.2,0.1
		c0.2,0.5,0.5,0.9,0.7,1.4c0.2,0.4,0.5,0.7,1,0.9c0.1,0,0.3,0.1,0.4,0c0.8-0.6,1.6-1.1,2.4-1.7c0,0,0.1-0.1,0.1-0.1
		c-0.5-0.3-0.9-0.7-1.2-1.2c-0.7-0.8-1.1-1.7-1.5-2.7c-0.5-1.4-0.7-2.9-0.8-4.5c0-0.1,0-0.3,0.2-0.4c0.1,0.5,0.1,0.9,0.1,1.4
		c0.1,0.5,0.1,1,0.2,1.4c0.1,0.5,0.2,0.9,0.4,1.3c0.1,0.5,0.3,0.9,0.5,1.3c0.1,0,0.2-0.1,0.3-0.2c0.8-0.8,1.6-1.6,2.2-2.5
		c0.2-0.4,0.2-0.4,0-0.7c-0.7-0.9-1.4-1.7-2.2-2.3c-0.1-0.1-0.3-0.2-0.3-0.4c0.5-0.3,1-0.6,1.4-1c-0.1-0.2-0.2-0.1-0.3-0.2
		c-0.7-0.2-1.3-0.4-2-0.6c-0.7-0.2-1.4-0.7-2-1.1c-0.8-0.6-1.5-1.2-2.1-2.1c-0.3-0.5-0.6-1.1-0.6-1.7c-0.2-0.1-0.3,0-0.4,0.1
		c-0.6,0.2-1.2,0.4-1.7,0.6c-0.4,0.1-0.4,0.2-0.3,0.6c0.2,0.8,0.6,1.4,1.2,2c0.1,0.1,0.2,0.2,0.3,0.4c-0.3-0.2-0.5-0.3-0.6-0.5
		c-0.5-0.6-0.8-1.1-1-1.9c-0.1-0.4-0.1-0.4-0.5-0.2c-1.2,0.5-2.5,0.9-3.7,1.3c-0.9,0.3-1.8,0.2-2.5-0.4c-0.3-0.2-0.6-0.5-0.8-0.7
		c-0.9-0.8-1.7-1.6-2.5-2.4c-0.1-0.1-0.4-0.3-0.3-0.4c0.2-0.2,0.3,0.1,0.4,0.2c0.9,0.9,1.9,1.8,2.8,2.7c0.2,0.2,0.4,0.4,0.6,0.5
		c0.6,0.5,1.3,0.6,2,0.4c0.8-0.2,1.6-0.4,2.4-0.7c1.3-0.5,2.6-0.9,3.9-1.4c0.2-0.1,0.3-0.1,0.5-0.2c0-0.2-0.1-0.2-0.2-0.2
		c-0.9-0.5-1.8-0.7-2.8-1.1c-2.5-0.9-5.1-1.5-7.6-2.2c-1.4-0.4-2.8-0.7-4.2-1c0,0,0,0,0,0c-0.2-0.1-0.5-0.1-0.4-0.2
		c0.1-0.2,0.3,0,0.5,0c1.5,0.3,3.1,0.7,4.6,1.1c2.1,0.5,4.1,1.1,6.2,1.7c1,0.3,1.9,0.6,2.9,0.9c0.4,0.1,0.8,0.3,1.1,0.5
		c0.3,0.2,0.6,0.2,1,0.1c0.4-0.1,0.8-0.1,1.2,0c1.1,0.4,1,0.4,1.8-0.5c0.3-0.3,0.5-0.6,0.7-0.9c0.1-0.1,0.2-0.3,0.1-0.4
		c-0.1-0.2-0.2-0.1-0.4-0.1c-0.1,0-0.2,0-0.4,0c-0.3-0.1-0.3-0.1-0.4-0.4c0-0.3,0.1-0.6,0-0.8c-0.1-0.2-0.5-0.2-0.7-0.4
		c-0.4-0.2-0.9-0.5-1.3-0.7c-0.2-0.1-0.4-0.2-0.6,0c-0.3,0.2-0.7,0.4-1.1,0.6c-0.1,0.1-0.2,0.1-0.3,0.1c-0.1-0.1,0.1-0.2,0.1-0.3
		c0.3-0.2,0.5-0.5,0.8-0.7c0.2-0.2,0.2-0.3-0.1-0.4c-0.1-0.1-0.3-0.1-0.5,0c-0.6,0.1-1.1,0.2-1.7,0.2c-0.1,0-0.3,0.1-0.3-0.1
		c0-0.2,0.2-0.2,0.3-0.2c0.4-0.1,0.9-0.3,1.3-0.4c0.1,0,0.3-0.1,0.4-0.2c-0.1-0.1-0.2-0.1-0.3-0.1c-1-0.2-2.1-0.4-3.2-0.6
		c-0.1,0-0.3,0-0.4-0.2c0.1-0.1,0.3-0.1,0.5-0.1c0.7,0.1,1.4,0.2,2,0.2c0.2,0,0.5,0.1,0.7,0c0-0.1-0.1-0.2-0.1-0.2
		c-0.7-0.3-1.4-0.7-2-1c-0.4-0.2-0.9-0.3-1.3-0.4c-2.1-0.4-4.2-0.8-6.2-1.2c-0.5-0.1-1.1-0.2-1.7-0.2c-0.1,0-0.2,0-0.3-0.1
		c0.2-0.1,0.3,0,0.5,0c1.1,0.1,2.2,0.4,3.3,0.6c1.3,0.3,2.7,0.5,4,0.8c0.1,0,0.2,0,0.2,0c-0.4-0.3-0.9-0.5-1.3-0.7
		c-0.5-0.2-0.9-0.5-1.4-0.7c-0.5-0.2-0.9-0.5-1.4-0.7c-0.5-0.2-0.9-0.5-1.4-0.7c-0.5-0.2-0.9-0.5-1.4-0.7c0.4-0.8,0.9-1.5,1.3-2.2
		c0.1-0.2,0.2-0.5,0.4-0.6c0.2,0,0.4,0.2,0.6,0.3c1.6,1.1,3.3,2.2,4.9,3.3c0.1,0.1,0.3,0.2,0.4,0.3c0-0.1,0-0.1,0-0.1
		c-1.2-1.3-2.2-2.9-3.2-4.3c-0.4-0.5-0.8-1.1-1.2-1.7c-0.1-0.1-0.2-0.2-0.1-0.3c0.1-0.1,0.2,0.1,0.2,0.2c1.2,1.8,2.5,3.6,3.8,5.3
		c0.4,0.5,0.9,1,1.3,1.5c0.1,0.1,0.2,0.2,0.3,0.2c1,0.6,1.9,1.3,2.9,1.9c0,0,0.1,0.1,0.2,0.1c-0.6-1-1.3-2-2-3
		c0.3,0,0.3,0.2,0.4,0.3c0.6,0.8,1.3,1.6,1.9,2.4c0.1,0.1,0.1,0.3,0.4,0.3c-0.1-0.7-0.3-1.5-0.4-2.2c0.3,0.1,0.3,0.3,0.3,0.4
		c0.2,0.6,0.5,1.2,0.7,1.9c0,0.1,0.1,0.1,0.1,0.2c0,0.1,0.1,0.2,0.2,0.1c0.1,0,0.2-0.1,0.2-0.2c0-0.3,0.1-0.6,0.1-0.9
		c0-0.2,0-0.3,0.1-0.5c0.1,0.1,0.1,0.3,0.1,0.4c0,0.3,0,0.6,0,0.9c0,0.2,0.1,0.3,0.3,0.4c0.6,0.4,1.2,0.7,1.8,1.1
		c0.3-0.5,0.5-1,0.8-1.5c0.1-0.3,0.2-0.7,0.2-1c-0.1-0.4,0-0.8,0-1.2c0-0.2-0.1-0.4-0.3-0.6c-0.1-0.1-0.2-0.2-0.3-0.2
		c-0.2-0.2-0.3-0.4-0.3-0.6c0-0.5-0.2-1-0.6-1.3c-0.9-0.7-1.6-1.6-2.4-2.4c-0.8-0.9-1.6-1.8-2.4-2.8c-1-1.2-1.9-2.5-2.8-3.8
		c-0.3-0.4-0.6-0.9-0.9-1.4c-0.1-0.1-0.2-0.2-0.1-0.5c2.7,3.9,5.5,7.7,9,10.9c0.1-0.1,0.1-0.2,0.1-0.3c-0.1-0.7-0.1-1.5-0.1-2.2
		c-0.1-0.9-0.1-1.7-0.1-2.6c0-0.7-0.1-1.4-0.3-2.1c-0.1-0.3-0.2-0.6-0.5-0.8c-0.6-0.4-1.3-0.6-1.9-0.9c-0.7-0.3-1.5-0.4-2.2-0.7
		c-0.1,0-0.1,0-0.2-0.1c-0.1,0-0.1,0-0.1-0.1c0-0.1,0.1-0.1,0.2-0.1c0.1,0,0.1,0,0.2,0c1.1,0.4,2.3,0.6,3.4,1.1
		c0.2,0.1,0.3,0.1,0.5,0.2c0.6,0.3,1,0.7,1,1.4c0.1,0.9,0.2,1.8,0.3,2.8c0,0.6,0,1.2,0.1,1.9c0.5-0.3,1-0.4,1.5-0.4
		c0.5,0,1.1,0,1.6,0.1c0,0.1-0.1,0.1-0.2,0.1c-0.6-0.1-1.1-0.1-1.7-0.1c-0.4,0-0.8,0.1-1.2,0.4c-0.1,0.1-0.2,0.2-0.2,0.3
		c0.1,1,0.1,2,0.3,3.1c0.3-0.1,0.6-0.2,0.9-0.3c1.2-0.3,2.4-0.3,3.6-0.1c1.5,0.3,2.9,0.8,4.3,1.5c0.1,0.1,0.3,0.1,0.2,0.2
		c-0.1,0.2-0.2,0-0.3,0c-1.3-0.7-2.6-1.1-4-1.4c-0.3-0.1-0.5-0.1-0.8-0.1c0,0.1,0,0.1,0,0.1c0.3,1.1,0.6,2.3,1.1,3.3
		c0.1,0.3,0.3,0.4,0.6,0.3c0.9-0.1,1.8-0.3,2.7-0.6c0.1,0,0.3-0.1,0.4-0.1c0.4-0.1,0.4-0.1,0.4,0.3c0,0.4,0,0.9,0.1,1.3
		c0,0.1,0,0.2,0.1,0.3c0.4-0.4,0.8-0.7,1.2-1.1c1.2-1.2,2.6-2,4.2-2.4c0.6-0.2,1.3-0.2,2-0.2c0.4,0,0.7,0.2,1.1,0.3
		c0.1-0.4,0.1-0.7,0.2-1.1c0.1-0.4,0.1-0.7,0.2-1.1c0.1-0.4,0.1-0.4-0.3-0.6c-0.8-0.3-1.5-0.2-2.3,0c-0.2,0-0.3,0.1-0.5,0.1
		c0-0.2,0.2-0.1,0.3-0.2c0.8-0.3,1.6-0.4,2.5-0.1c0.1,0,0.1,0,0.2,0.1c0.2,0.1,0.3,0,0.3-0.2c0.1-0.6,0.2-1.3,0.3-1.9
		c0.1-0.8,0.3-1.5,0.5-2.3c0.2-0.8,0.7-1.5,1.5-1.8c0.5-0.2,1.1-0.3,1.6-0.6c1-0.4,1.9-0.6,2.9-0.9c0.1,0,0.3-0.2,0.4,0
		c0.1,0.2-0.2,0.2-0.3,0.2c-1.3,0.3-2.5,0.8-3.7,1.2c-0.3,0.1-0.6,0.2-0.9,0.3c-0.7,0.3-1.2,0.9-1.4,1.6c-0.2,0.9-0.4,1.7-0.6,2.6
		c-0.2,1.5-0.5,2.9-0.7,4.4c0,0.2,0,0.4,0,0.6c0.1,0,0.1,0,0.1,0c0.7-0.7,1.5-1.4,2.2-2.2c0.4-0.4,0.8-0.8,1.3-1.2
		c1-0.9,1.9-1.9,2.8-2.9c1.2-1.4,2.5-2.8,3.6-4.3c0.3-0.5,0.6-1,0.9-1.4c0.1-0.1,0.1-0.3,0.3-0.4c0.1,0.1,0,0.3,0,0.4
		c-0.5,1-1.2,1.9-1.9,2.7c-1.2,1.5-2.5,3-3.8,4.4c-0.7,0.8-1.5,1.6-2.3,2.3c-0.6,0.6-1.2,1.3-1.9,1.9c-0.3,0.4-0.7,0.7-1.1,1
		c-0.2,0.2-0.5,0.5-0.6,0.8c-0.1,0.2-0.2,0.3-0.4,0.4c-0.2,0.1-0.3,0.3-0.4,0.4c-0.2,0.2-0.3,0.4-0.2,0.7c0.2,0.6,0.5,1.2,0.8,1.8
		c0.1,0.1,0.1,0.2,0.3,0.2c0.2,0,0.2-0.1,0.2-0.3c0-0.1,0.1-0.2,0.1-0.2c0.2-0.3,0.4-0.4,0.7-0.1c0.3,0.2,0.7,0.3,0.9,0.6
		c0.1,0.1,0.2,0.2,0.3,0.1c0.1-0.1,0.3-0.1,0.4-0.4c0.1-0.7,0.4-1.3,1-1.8c0.1-0.1,0.2-0.2,0.2-0.3c0-0.3,0-0.5,0-0.8
		c0-0.1,0-0.3,0.1-0.5c0.2,0.1,0.2,0.2,0.2,0.3c0.1,0.4,0.2,0.7,0.3,1.1c0,0.1,0.1,0.2,0.2,0.3c0.2,0,0.2-0.1,0.2-0.2
		c0.2-0.6,0.5-1.2,0.7-1.8c0.1-0.2,0.1-0.4,0.3-0.5c0.1,0.4-0.1,0.7-0.1,1.1c-0.1,0.4-0.2,0.7-0.2,1.2c0.9-1.1,1.8-2.1,2.7-3.2
		c0.1,0.3,0,0.4-0.1,0.5c-0.5,0.6-0.9,1.3-1.4,1.9c-0.1,0.1-0.2,0.2-0.2,0.5c3.3-2.2,6.6-4.4,9.9-6.6c0.2,0.1,0.2,0.2,0.3,0.3
		c0.4,0.7,0.8,1.4,1.3,2.1c0.3,0.5,0.2,0.4-0.2,0.6c-2.3,1.2-4.5,2.4-6.8,3.5c-1.1,0.6-2.2,1.2-3.3,1.7c-0.1,0.1-0.3,0.1-0.4,0.3
		c1.2-0.1,2.4-0.2,3.6-0.4c0,0.2-0.1,0.2-0.2,0.2c-1,0.2-2.1,0.4-3.1,0.5c-0.2,0-0.3,0-0.5,0.2c0.7,0.3,1.4,0.4,2.2,0.8
		c-0.2,0.1-0.3,0.1-0.4,0.1c-0.7-0.1-1.4-0.2-2.1-0.3c-0.1,0-0.2,0-0.2,0c-0.1,0-0.2,0-0.2,0.1c0,0.1,0,0.2,0.1,0.2
		c0.1,0.1,0.2,0.2,0.4,0.3c0.3,0.2,0.5,0.4,0.8,0.6c-0.1,0.2-0.2,0.1-0.3,0c-0.2-0.1-0.4-0.2-0.6-0.3c-0.3-0.2-0.6-0.3-0.8,0
		c-0.1,0.1-0.3,0.1-0.4,0.1c-0.3,0-0.6,0.1-0.9,0.1c-0.2,0-0.4,0-0.5-0.1c-0.1-0.1-0.3-0.1-0.4,0c-0.1,0.1-0.1,0.1-0.1,0.2
		c0,0.1,0,0.2,0.1,0.2c0.4,0.7,0.8,1.3,1.3,1.9c0.1,0.1,0.1,0.1,0.2,0.2c0.5,0.2,0.9,0.5,1.4,0.7c0.2,0.1,0.4,0.1,0.7,0
		c0.4-0.2,0.7-0.3,1.1,0c0.1,0.1,0.3,0,0.5,0c1.6-0.4,3.2-0.8,4.9-1.2c2.2-0.6,4.5-1,6.8-1.3c0.8-0.1,1.5-0.3,2.3-0.3
		c0.1,0,0.2,0,0.3,0.1c0,0.2-0.2,0.1-0.3,0.1c-2.5,0.3-4.9,0.7-7.3,1.2c-1.5,0.3-2.9,0.7-4.3,1.1c-0.7,0.2-1.5,0.4-2.3,0.6
		c0.3,0.3,0.7,0.4,1,0.5c1.4,0.7,2.8,1.4,4.3,2.1c0.6,0.3,1.3,0.5,1.9,0.8c0.3,0.1,0.6,0.1,0.9-0.1c0.7-0.3,1.2-0.8,1.7-1.3
		c0.6-0.5,1.1-1.1,1.7-1.6c0.1,0,0.1-0.1,0.2-0.2c0,0,0.1,0,0.1,0c0,0,0.1,0.1,0,0.1c0,0.1-0.1,0.1-0.1,0.2
		c-0.9,0.8-1.7,1.8-2.7,2.5c-0.2,0.1-0.3,0.2-0.5,0.3c-0.5,0.3-0.9,0.4-1.4,0.1c-1.2-0.5-2.4-1-3.6-1.6c-0.2-0.1-0.5-0.2-0.8-0.3
		c0,0.6-0.1,1.1-0.4,1.6c-0.3,0.5-0.5,0.9-0.9,1.3c-0.1-0.1-0.1-0.1,0-0.2c0.3-0.4,0.6-0.9,0.8-1.3c0.2-0.4,0.4-0.8,0.3-1.3
		c0-0.1-0.1-0.3-0.2-0.3c-0.9-0.4-1.7-0.8-2.6-1.2c-0.1,0-0.1-0.1-0.2,0c-0.3,2.3-1.5,4-3.2,5.5c-0.6,0.6-1.3,1.2-2.1,1.6
		c-0.1,0-0.1,0.1-0.2,0.1c-0.1,0-0.2,0.1-0.2,0c-0.1-0.1,0-0.1,0.1-0.2c0.6-0.4,1.2-0.8,1.7-1.2c0.8-0.7,1.5-1.4,2.1-2.2
		c0,0,0.1-0.1,0.1-0.2c-0.6-0.2-1.1-0.3-1.7-0.4c-0.7-0.1-1.3-0.2-2-0.2c-0.3,0-0.4,0.1-0.5,0.3c-0.4,0.9-0.7,1.8-0.8,2.7
		c0,0.2-0.1,0.5-0.1,0.8c-0.6-0.3-1.1-0.6-1.7-0.7c-0.1,0.1,0,0.3,0,0.4c0.1,0.5,0.3,1,0.4,1.5c0.3,1.2,0.2,2.4,0.1,3.6
		c-0.1,0.7-0.3,1.4-0.7,2.1c-0.3,0.6-0.7,1.1-1.3,1.4c0.3,0.2,0.5,0.4,0.8,0.6c0.3,0.3,0.6,0.5,1,0.8c0.3,0.3,0.4,0.3,0.7,0
		c0.6-0.5,0.9-1.2,1.1-2c0-0.1,0-0.3,0.2-0.5c0,0.4-0.1,0.7-0.2,1.1c-0.2,0.3-0.3,0.7-0.5,1c-0.2,0.3-0.5,0.5-0.8,0.8
		c0.5,0.4,0.9,0.8,1.3,1.1c0.7,0.5,1.3,1.2,2,1.8c0.8,0.7,1,1.7,0.8,2.8c-0.1,0.6-0.3,1.1-0.4,1.7c-0.1,0.9-0.5,1.7-0.6,2.6
		C70.2,91.5,70.2,91.7,70.1,91.7 M64.5,62.5c-0.3,0.5-0.2,0.9,0,1.3c0.3,0.6,0.6,1.1,0.8,1.7c0.2,0.4,0.5,0.8,0.9,1
		c0.8,0.5,1.7,0.8,2.7,0.9c1.1,0.1,2.1,0.1,3.1,0.4c0.3,0.1,0.7,0.2,1,0.3c0.2,0.1,0.3,0,0.5-0.2c0.4-0.7,0.7-1.4,1-2.2
		c0.1-0.2,0-0.3-0.2-0.3c-0.9-0.3-1.8-0.8-2.6-1.3c-0.2-0.1-0.4-0.2-0.5-0.4c-0.3-0.5-0.6-0.9-0.9-1.4c-0.1-0.2-0.3-0.4-0.5-0.7
		c-0.1,0.5-0.1,0.5-0.4,0.7c-0.4,0.3-0.7,0.3-1.1-0.1c0,0-0.1,0-0.1,0c-0.5-0.4-0.9-0.9-1.1-1.5c0-0.1-0.1-0.3,0-0.4
		c0.2-0.2,0.2-0.2-0.1-0.3c-0.2-0.1-0.4-0.1-0.5-0.1c-0.2,0-0.4,0.1-0.4,0.3c-0.1,0.2-0.1,0.5,0,0.7c0.3,1.1,0.8,2,1.8,2.6
		c0.1,0.1,0.3,0.1,0.4,0.3c-0.1,0.1-0.2,0-0.2,0c-1.3-0.7-1.9-1.7-2.2-3.1c0-0.1,0-0.3-0.2-0.3c-0.2,0-0.4-0.1-0.5,0.2
		c0,0.1-0.1,0.3-0.1,0.4c0,0.9,0.3,1.8,1,2.4c0.2,0.2,0.4,0.4,0.6,0.6c0.1,0.1,0.2,0.1,0.1,0.3c-1-0.8-1.8-1.7-1.8-3.1
		c-0.3,0-0.3,0.2-0.3,0.4c0,1.1,0.2,2.1,1,2.9c0.1,0.1,0.1,0.1,0,0.2C65,64.2,64.7,63.5,64.5,62.5 M51.5,59.6
		c0.4,0.9-0.4,2.9-1.8,3.8c0,0.1,0.1,0.1,0.1,0.2c0.2,0.3,0.3,0.3,0.6,0.2c0.1,0,0.1,0,0.2-0.1c0.8-0.5,1.4-1.1,1.7-2
		c0.1-0.3,0.2-0.6,0.2-0.9c0-0.1,0.1-0.2,0.2-0.1c-0.1,0.6-0.3,1.2-0.6,1.7c-0.3,0.6-0.8,0.9-1.3,1.3c0.2,0.2,0.3,0.1,0.5,0
		c1-0.5,1.7-1.2,2-2.3c0-0.1,0.1-0.1,0.2-0.1c-0.2,0.9-0.7,1.5-1.4,2.2c0.6,0,0.9-0.3,1.1-0.7c0.3-0.5,0.6-0.9,1-1.4
		c0.3-0.4,0.5-0.9,0.5-1.4c0-0.9-0.2-1.8-0.5-2.7c-0.2-0.5-0.5-0.9-0.7-1.4c-0.3-0.8-0.5-1.6-0.7-2.4c-0.1-0.3-0.2-0.4-0.5-0.4
		c-0.8-0.1-1.5,0-2.3,0.2c-0.3,0.1-0.3,0.1-0.3,0.4c0.1,1,0.1,1.9,0.1,2.9c0,0.2,0,0.4-0.1,0.5c-0.2,0.4-0.5,0.8-0.7,1.3
		c-0.3,0.6-0.4,0.5,0.2,0.9c0.2,0.1,0.5,0.2,0.6,0.4c0.1,0.2,0,0.5,0,0.8c-0.1,0.6-0.3,1.2-0.8,1.7c-0.1,0.1-0.2,0.2-0.3,0.1
		c-0.2-0.1-0.3,0-0.3,0.2c0,0.2,0.1,0.4,0.2,0.5c0.1,0.3,0.3,0.3,0.6,0.2c0.3-0.1,0.6-0.2,0.8-0.4c0.7-0.8,1.2-1.6,1.2-2.6
		C51.4,60,51.4,59.8,51.5,59.6 M59.5,73.7c-0.3-0.5-0.7-0.6-1.1-0.6c-0.6,0-1.2-0.1-1.9-0.1c-0.6,0-1.2,0.1-1.7,0.4
		c-0.8,0.6-1.6,1.2-2.1,2.1c-0.2,0.3-0.4,0.6-0.6,0.9c-0.5,0.7-1.1,1.3-1.7,1.8c-0.2,0.2-0.2,0.3-0.1,0.6c0.4,0.7,0.8,1.3,1.4,1.9
		c0.1,0.1,0.3,0.1,0.4,0c0.7-0.6,1.6-1.1,2.4-1.6c0.2-0.1,0.4-0.2,0.7-0.2c0.6,0,1.1-0.1,1.7-0.1c0.2,0,0.3-0.1,0.3-0.3
		c0-0.3,0.1-0.6,0-0.9c0-0.1,0-0.2,0.1-0.3c0.7-0.3,1.3-0.6,2.1-0.5c0.2,0,0.3,0.1,0.5,0.1c0.2,0,0.1,0.3,0.2,0.4
		c0.3-0.1,0.5-0.3,0.6-0.5c0.1-0.2,0.1-0.4-0.1-0.6c-0.3-0.2-0.6-0.4-0.9-0.5c-1-0.1-1.9-0.2-2.8,0.3c-0.1,0.1-0.2,0.2-0.5,0.1
		c1.4-1,2.8-0.9,4.3-0.3c0.3-0.5,0.3-0.6-0.2-0.9c-0.8-0.5-1.7-0.7-2.6-0.4c-0.2,0.1-0.5,0.1-0.7,0.2c-0.1,0-0.2,0.1-0.3-0.1
		c1.2-0.5,2.4-0.6,3.6,0c0.1-0.3,0-0.4-0.2-0.5c-0.9-0.6-1.9-0.9-3-0.6c-0.1,0-0.2,0.1-0.2,0C57.4,73.3,58.1,73.3,59.5,73.7
		 M55.4,62.1c-0.1,0.5-0.2,0.9-0.3,1.3c-0.3,0.9-0.9,1.5-1.6,2.1c-0.1,0-0.1,0.1-0.2,0c-0.1-0.1,0-0.1,0.1-0.2
		c0.2-0.2,0.4-0.3,0.6-0.5c0.7-0.7,1-1.7,1.2-2.6c0-0.1,0-0.2,0-0.3c0-0.2-0.2-0.2-0.3-0.2c-0.1,0-0.2,0.1-0.2,0.2
		c0,0.1,0,0.2-0.1,0.3c-0.1,0.7-0.5,1.3-1,1.9c-0.3,0.3-0.7,0.5-1,0.6c0.3-0.3,0.7-0.4,0.9-0.7c0.2-0.3,0.5-0.6,0.6-0.9
		c0.1-0.3,0.3-0.7,0.3-1.1c-0.2,0.1-0.3,0.2-0.3,0.4c-0.2,0.3-0.5,0.7-0.7,1c-0.3,0.5-0.8,0.7-1.3,0.7c-0.2,0-0.5,0-0.6,0.2
		c-0.2,0.2-0.4,0.2-0.7,0.1c-0.2-0.1-0.3-0.1-0.5,0c-0.3,0.1-0.5,0.1-0.6-0.2c0-0.1-0.1-0.1-0.2-0.2c-0.3-0.3-0.6-0.3-0.8,0
		c-0.5,0.6-0.9,1.2-1.5,1.6c-0.6,0.5-1.2,1-1.8,1.4c-0.3,0.2-0.3,0.2-0.1,0.5c0.4,0.5,0.8,1,1.4,1.4c0.2,0.2,0.4,0.2,0.7,0.1
		c0.4-0.2,0.8-0.4,1.3-0.6c1.3-0.4,2.7-0.7,4-0.9c0.6-0.1,1.1-0.3,1.6-0.7c0.7-0.6,1.2-1.2,1.5-2c0.1-0.3,0.1-0.5,0.1-0.8
		c-0.2,0.1-0.2,0.2-0.2,0.3c-0.2,0.5-0.5,1-0.8,1.4c-0.2,0.3-0.3,0.4-0.7,0.4c0.6-0.5,0.9-1.2,1.3-1.9c0.2-0.4,0.3-0.8,0.4-1.2
		C55.9,62.6,55.8,62.3,55.4,62.1 M65.1,65.5c-0.1-0.4-0.2-0.6-0.5-0.8c-0.1,0-0.2-0.1-0.2-0.2c0.2-0.3-0.1-0.5-0.2-0.7
		c-0.2-0.5-0.2-1,0.1-1.5c0.1-0.2,0.2-0.4,0.1-0.6c0-0.3,0.1-0.5,0.3-0.6c0.1-0.1,0.2-0.1,0.2-0.3c0-0.4,0.2-0.5,0.6-0.6
		c0.5-0.1,0.6-0.3,0.4-0.8c-0.3-0.6-0.6-1.3-0.7-2c-0.1-0.8-0.2-1.6-0.4-2.3c-0.1-0.3-0.1-0.4-0.4-0.3c-0.7,0.1-1.3,0.3-2,0.6
		c-0.2,0.1-0.3,0.3-0.3,0.5c0,0.4,0,0.7-0.1,1.1c-0.3,1.5-0.7,2.9-1.2,4.2c-0.5,1.3-0.2,2.4,0.5,3.6c0.2,0.3,0.5,0.6,0.8,0.9
		c0.1,0.1,0.2,0.2,0.3,0.1c-0.1-0.1-0.1-0.2-0.2-0.3c-0.3-0.5-0.6-0.9-0.9-1.4c-0.2-0.3-0.2-0.4-0.1-0.8c0,0,0.1,0,0.1,0.1
		c0.2,0.7,0.7,1.3,1,2c0.2,0.3,0.5,0.6,0.8,0.8c0.1,0.1,0.2,0.2,0.4,0.2c0.2,0,0.4,0.1,0.5-0.1c0.1-0.1-0.1-0.2-0.2-0.3
		c-0.1-0.1-0.1-0.1-0.2-0.2c-0.9-0.7-1.3-1.7-1.5-2.8c0-0.1,0-0.2,0.1-0.2c0.1,0.1,0.1,0.2,0.1,0.3c0.2,1.2,0.9,2.1,1.8,2.9
		c0.1,0.1,0.2,0.2,0.4,0.2c0.2,0.1,0.3,0,0.4-0.1c0.1-0.1,0-0.2-0.1-0.3c0,0-0.1-0.1-0.1-0.1c-0.6-0.4-0.9-1-1.2-1.6
		c-0.2-0.4-0.2-0.8-0.2-1.2c0-0.1,0-0.1,0.1-0.1c0.2,0.4,0,0.8,0.2,1.1c0.1,0.4,0.3,0.7,0.5,1C64.4,64.9,64.7,65.2,65.1,65.5
		 M57.8,70.4c0.1,0.1,0.3,0,0.4,0c0.6-0.1,1.1-0.1,1.7,0c0.3,0,0.5,0.1,0.7,0.3c-0.1,0.1-0.1,0.1-0.2,0c-0.8-0.2-1.6-0.1-2.4-0.1
		c-0.3,0-0.6,0.1-0.9,0.2c-0.1,0.1-0.3,0.1-0.4,0.3c-0.1,0.1-0.3,0.3-0.1,0.4c0.1,0.1,0.3,0,0.4,0c0.1,0,0.1,0,0.2-0.1
		c1.1-0.4,2.1-0.3,3.1,0.1c0.1,0,0.3,0,0.3,0.2c-0.1,0.2-0.2,0-0.3,0c-1.2-0.5-2.3-0.3-3.4,0.1c-0.1,0-0.2,0.1-0.3,0.2
		c-0.1,0.1-0.1,0.2-0.1,0.4c0.1,0.1,0.2,0.1,0.3,0.1c0.1,0,0.2-0.1,0.4-0.1c0.9-0.2,1.9-0.3,2.7,0.2c0.1,0.1,0.3,0.1,0.3,0.3
		c-0.1,0.2-0.2,0-0.3-0.1c-1-0.5-1.9-0.4-3,0c0.3,0.2,0.6,0.1,0.9,0.1c0.3,0,0.6,0,0.9,0.1c0.5,0.1,0.9,0.3,1.2,0.8
		c0.1,0.2,0.3,0.4,0.5,0.5c0.3,0.1,0.4,0.3,0.4,0.6c0,0.1,0,0.3,0.1,0.3c0.4,0.2,0.3,0.5,0.2,0.9c-0.2,0.5,0,0.7,0.5,0.8
		c0.7,0.1,1.4,0.2,2,0.4c0.7,0.3,1.5,0.6,2.2,0.9c0.4,0.2,0.4,0.2,0.6-0.2c0.2-0.6,0.4-1.2,0.5-1.8c0-0.4-0.1-0.6-0.4-0.7
		c-0.4-0.2-0.8-0.5-1.1-0.8c-1-0.9-1.9-1.9-2.7-3c-0.7-0.9-2.8-1.7-4-1.3C58.2,70.1,58,70.2,57.8,70.4 M62.1,55.6
		c-1,0.2-3.1,2.1-3.4,2.8c0.2,0.1,0.4,0.1,0.6,0.1c0.5,0,1.1,0,1.6-0.1c1-0.2,0.8,0,1.1-1C62,56.9,62.1,56.2,62.1,55.6 M47.3,69.1
		c0.6,0.5,1.3,0.8,2,1.1c0.7,0.2,1.4,0.5,2.2,0.6c0-0.1,0-0.1,0-0.2c-0.3-0.9-0.9-1.6-1.5-2.3c-0.1-0.1-0.2-0.1-0.3-0.1
		c-0.3,0.1-0.6,0.2-0.9,0.3C48.2,68.6,47.7,68.8,47.3,69.1 M66.1,70.7c-0.2,0.1-0.3,0.3-0.4,0.4c-0.2,0.4-0.5,0.8-0.6,1.2
		c-0.5,1.3-0.6,0.9,0.4,1.8c0.4,0.4,0.8,0.7,1.3,0.9C66.9,73.6,66.5,72.1,66.1,70.7 M62.8,77.1c-0.2,0-0.3-0.1-0.5-0.1
		c-0.4,0-0.8-0.1-1.2-0.1c-0.1,0-0.3,0-0.3,0.2c-0.1,0.1,0,0.2,0.1,0.3c0.1,0.1,0.2,0.3,0.2,0.4c0.1,0.2,0,0.4-0.2,0.5
		c-0.2,0.1-0.4,0.2-0.6,0.3c-0.1,0.1-0.3,0.1-0.3,0.2c0,0.4-0.1,0.8,0.1,1.1c0.2,0.4,0.4,0.7,0.6,1.2C61.5,79.8,62.2,78.5,62.8,77.1
		 M57.4,79.6c0.8-0.3,1.5-0.4,2.3-0.1c0.2,0.1,0.2,0,0.2-0.2c0-0.7,0-1.3,0-2c0-0.2-0.1-0.2-0.3-0.3c-0.7-0.1-1.3,0-2,0.4
		c-0.1,0.1-0.1,0.1-0.2,0.2C57.4,78.3,57.4,78.9,57.4,79.6 M61.6,82c0.1,0,0.2-0.1,0.2-0.2c0.6-1.2,1.2-2.5,1.8-3.7
		c0-0.1,0.1-0.1,0.1-0.2c0.1-0.3-0.1-0.6-0.4-0.7c-0.2-0.1-0.2-0.1-0.4,0.3c-0.3,0.6-0.6,1.2-0.9,1.7c-0.3,0.6-0.7,1.3-1,1.9
		c-0.1,0.1-0.2,0.2-0.1,0.3C61.1,81.7,61.4,81.8,61.6,82 M47.5,58.1c0.2,1.3-0.3,2-1.4,2.6c0.3,0.2,0.6,0.3,0.8,0.5
		c0.2,0.1,0.4,0.1,0.6,0.1c0.9-0.3,1.4-1.4,1-2.3c0-0.1-0.1-0.2-0.2-0.3C48.1,58.5,47.9,58.3,47.5,58.1 M47.8,61.4
		c0.4,0.2,0.8,0.4,1.1,0.6c0.2,0.1,0.3,0.1,0.4-0.1c0.4-0.5,0.6-1.2,0.7-1.8c0-0.1,0-0.2-0.1-0.2c-0.3-0.2-0.5-0.4-0.9-0.6
		C49,60.2,48.7,60.9,47.8,61.4 M56.2,63.3c0,0.6,0,0.6,0.4,0.8c0.1,0.1,0.2,0.1,0.3,0.2c0.1,0.1,0.1,0.2,0,0.2
		c-0.1,0.1-0.1,0.1-0.2,0c-0.1,0-0.2-0.1-0.3-0.2c-0.1-0.1-0.2-0.1-0.3,0.1c-0.1,0.1-0.1,0.2,0.1,0.3c0.2,0.1,0.3,0.2,0.5,0.2
		c0.1,0.1,0.2,0.1,0.1,0.2c-0.1,0.2-0.2,0.1-0.3,0.1c-0.1-0.1-0.3-0.1-0.4-0.2c-0.1-0.1-0.2,0-0.3,0.1c-0.1,0.1,0,0.2,0.1,0.3
		c0.1,0.1,0.2,0.1,0.3,0.2c0.1,0,0.1,0.1,0,0.2c0,0.1-0.1,0.1-0.1,0.1c-0.1,0-0.2-0.1-0.3-0.1c-0.2-0.1-0.3-0.1-0.4,0.1
		c0,0.1-0.2,0.1-0.1,0.3c0.5,0.4,1,0.1,1.4-0.1c0.5-0.2,0.8-0.8,0.7-1.3C57.3,64,56.9,63.6,56.2,63.3 M69.6,61.7
		c-0.7-0.2-1.1-0.7-1.1-1.4c0-0.2-0.1-0.2-0.3-0.2c-0.3,0-0.5,0.2-0.7,0.3c-0.2,0.1-0.3,0.2-0.2,0.5c0.2,0.5,0.6,1,1.1,1.3
		c0.1,0.1,0.3,0.3,0.5,0.1C69.2,62.1,69.6,62.1,69.6,61.7 M65.5,56.7c0.6-0.3,1-0.7,1.2-1.3c0.1-0.1,0-0.2-0.1-0.3
		c-0.3-0.5-0.7-0.4-1.2-0.5c-0.2,0-0.3,0.1-0.3,0.3C65.3,55.5,65.4,56.1,65.5,56.7 M46.7,65.5c-0.5-0.3-1-0.5-1.5-0.4
		c-0.4,0-0.7,0.3-0.6,0.7c0,0.3,0.2,0.6,0.3,0.9c0.1,0.1,0.2,0.1,0.3,0.1C45.7,66.3,46.2,65.9,46.7,65.5 M63.9,77.5
		c0,0.6,0.1,1.1,0.4,1.5c0.3,0.4,0.6,0.5,1,0.2c0.2-0.2,0.4-0.4,0.6-0.7c0.1-0.1,0.1-0.2-0.1-0.3C65.2,77.9,64.6,77.7,63.9,77.5
		 M60.4,81.3c0-0.4-0.1-0.6-0.4-0.8c-0.7-0.5-2.2-0.4-2.9,0.2c-0.1,0.1-0.3,0.3-0.3,0.4c0,0.1,0,0.2,0.1,0.2c0.1,0.1,0.1,0,0.2,0
		c0.3-0.2,0.6-0.4,1-0.7c0.4-0.3,0.8-0.3,1.2,0C59.6,80.9,60,81.1,60.4,81.3 M70.6,57.8c-0.4,0.2-0.5,0.5-0.5,0.9
		c0.1,1,0.6,1.7,1.5,2.2C71.8,61,72,61,72.2,61c0.1,0,0.2-0.1,0.2-0.1c0-0.1-0.1-0.2-0.1-0.2c-0.3-0.1-0.6-0.3-0.9-0.4
		c-0.6-0.3-0.7-0.5-0.7-1.1C70.7,58.7,70.7,58.3,70.6,57.8 M46.8,57.7c0,0.4,0.1,0.7,0.1,1.1c0,0.5-0.1,0.8-0.6,1
		c-0.3,0.1-0.5,0.2-0.7,0.4c0,0,0,0.1,0.1,0.1c0.1,0.1,0.3,0.2,0.5,0.1c1-0.3,1.6-1.5,1.2-2.4C47.2,57.9,47,57.7,46.8,57.7
		 M69.4,59.8c-0.2,0.1-0.4,0.2-0.6,0.3c-0.1,0.1-0.2,0.1-0.2,0.3c0,0.4,0.2,0.7,0.5,0.9c0.3,0.2,0.5,0,0.7-0.1c0.1,0,0.2,0,0.3-0.2
		C69.8,60.7,69.6,60.3,69.4,59.8 M69.8,58.8c-0.1,0.2-0.3,0.3-0.3,0.5c0.1,0.7,0.4,1.4,1.1,1.7c0.2,0.1,0.4,0.1,0.7,0
		C70.5,60.5,70.1,59.7,69.8,58.8 M60,80.2c-0.1-0.3-0.2-0.5-0.5-0.5c-0.6-0.2-1.3-0.2-1.9,0c-0.2,0.1-0.4,0.2-0.4,0.6
		C58.2,79.9,59.1,79.9,60,80.2 M61,83.2C61,83.2,61.1,83.2,61,83.2c0.2-0.2,0.2-0.3,0.3-0.4c0.3-0.6,0.3-0.6-0.3-0.8
		c-0.2,0-0.3-0.1-0.4,0.1c-0.1,0.2-0.1,0.3,0,0.5C60.7,82.8,60.8,83.1,61,83.2 M60.7,66.2c0.2,0.2,0.4,0.4,0.7,0.2
		c0.3-0.2,0.6-0.3,0.9-0.5c-0.1-0.2-0.2-0.2-0.3-0.3c-0.1-0.1-0.2-0.1-0.3,0C61.4,65.8,61,66,60.7,66.2 M60.2,65.5
		c0.3-0.2,0.6-0.3,0.9-0.5c0.1,0,0.1-0.1,0.1-0.2c0-0.3-0.3-0.4-0.5-0.3c-0.1,0-0.2,0.1-0.2,0.1C60.1,64.9,60.1,64.9,60.2,65.5
		 M68.4,59.7c-0.3-0.2-0.5-0.4-0.7-0.5c-0.2-0.1-0.3,0-0.4,0.2c-0.1,0.1-0.2,0.3,0.1,0.4c0.2,0.2,0.4,0.3,0.7,0
		C68.1,59.8,68.2,59.8,68.4,59.7 M60.1,78.4C60.1,78.4,60.1,78.4,60.1,78.4c0.3-0.1,0.4-0.2,0.6-0.3c0.3-0.1,0.3-0.2,0.1-0.5
		c-0.1-0.1-0.1-0.2-0.2-0.3C60,77.7,60,77.7,60.1,78.4 M47.8,61.7c0,0.3,0,0.5,0,0.7c0,0.2,0.1,0.3,0.3,0.3c0.1,0,0.3,0,0.4-0.1
		c0.1-0.3,0-0.5-0.3-0.7C48.1,61.8,48,61.7,47.8,61.7 M60.6,66c0,0,0.1,0,0.1-0.1c0.3-0.1,0.5-0.3,0.8-0.4c0.1-0.1,0.2-0.1,0.1-0.2
		c-0.1-0.1-0.1-0.2-0.3-0.1c-0.3,0.2-0.6,0.3-0.9,0.5c-0.1,0.1-0.1,0.1-0.1,0.2C60.4,65.9,60.5,66,60.6,66 M58.7,69.2
		C58.7,69.2,58.7,69.2,58.7,69.2c0-0.2,0-0.3,0-0.5c0-0.1,0-0.2-0.1-0.2c-0.1,0-0.2,0-0.2,0.2c0,0.3,0,0.7,0,1
		c0,0.1,0.1,0.2,0.2,0.2c0.1,0,0.2-0.1,0.2-0.2C58.7,69.5,58.7,69.3,58.7,69.2 M60,83c0.1,0.4,0.2,0.8,0.4,1.3
		c0.2-0.2,0.2-0.4,0.3-0.5c0-0.1,0-0.2,0-0.2C60.5,83.4,60.3,83.1,60,83 M59.2,69.1C59.2,69.1,59.2,69.1,59.2,69.1
		c0-0.2,0-0.4,0-0.6c0-0.1-0.1-0.1-0.2-0.1c-0.1,0-0.1,0.1-0.1,0.1c0,0.3,0,0.7,0,1c0,0.1,0.1,0.1,0.2,0.1c0.1,0,0.1,0,0.2-0.1
		C59.2,69.4,59.2,69.3,59.2,69.1 M59.8,85.5c0.5-0.6,0.5-0.9-0.1-1.6C59.7,84.4,59.7,84.9,59.8,85.5 M58.1,69.3c0-0.2,0-0.4,0-0.5
		c0-0.1-0.1-0.1-0.2-0.1c-0.1,0.1-0.1,0.1-0.1,0.2c0,0.3,0,0.5,0,0.8c0,0.1,0,0.2,0.1,0.2c0.1,0,0.2-0.1,0.2-0.2
		C58.1,69.6,58.1,69.4,58.1,69.3 M59.4,68.6c-0.1,0.3,0,0.6,0,0.9c0,0.1,0,0.3,0.2,0.3c0.2,0,0.2-0.1,0.2-0.3c0-0.2,0-0.3,0-0.5
		C59.7,68.8,59.6,68.7,59.4,68.6 M61.7,66.5c0.3,0.1,0.8-0.1,1.1-0.4C62.3,66,62.1,66.3,61.7,66.5 M57.3,70.3c0.2,0,0.3-0.1,0.3-0.2
		c0-0.3,0.1-0.6-0.1-0.9C57.2,69.5,57.3,69.9,57.3,70.3 M49.6,53.5c-0.2,0.1-0.4,0.1-0.4,0.3c0,0.2,0.2,0.4,0.4,0.4
		C49.6,53.9,49.7,53.7,49.6,53.5 M52,81c0.2,0.1,0.3,0.3,0.5,0.2c0.2-0.1,0.2-0.3,0.2-0.6C52.5,80.7,52.3,80.8,52,81 M74.6,65.2
		c0-0.2,0.1-0.4,0-0.5c-0.2-0.1-0.4,0-0.6,0.1C74.1,65,74.3,65.1,74.6,65.2 M60.4,64.4c0.2,0,0.3-0.1,0.5-0.2c0.1-0.1,0.1-0.2,0-0.2
		c-0.1-0.1-0.1-0.1-0.2,0C60.5,64,60.3,64.1,60.4,64.4 M60,69.2c0,0.1,0,0.2,0,0.2c0,0.1,0,0.3,0.1,0.4c0,0,0.1,0,0.1,0
		c0.1-0.1,0.1-0.3,0-0.4C60.2,69.3,60.1,69.2,60,69.2 M44.9,59.8c-0.1,0-0.2,0-0.1,0.1c0,0.1,0.1,0.1,0.1,0.1c0.1,0,0.1,0,0.1-0.1
		C45,59.7,44.9,59.8,44.9,59.8"/>
	<path class="st0" d="M71.4,76.4c0.2,2-0.6,4.2-1.4,4.7c0.2-0.4,0.5-0.7,0.7-1.1c0.2-0.4,0.3-0.8,0.4-1.2c0.1-0.4,0.2-0.8,0.2-1.2
		C71.4,77.2,71.3,76.8,71.4,76.4"/>
	<path class="st0" d="M79.8,68.8c0.1,0.3,0.1,0.6,0,0.9c-0.1,0.3-0.2,0.6-0.4,0.9c-0.5,0.9-1.1,1.7-1.8,2.5c0,0-0.1,0.1-0.2,0.1
		c0-0.2,0.1-0.3,0.2-0.4c0.6-0.6,1.1-1.4,1.6-2.1C79.5,70.1,79.7,69.5,79.8,68.8"/>
	<path class="st0" d="M50.2,47.2c0.2-0.3,0.5-0.4,0.8-0.4c0.5-0.1,0.9-0.1,1.4-0.1c0.8,0.1,1.7,0.2,2.5,0.3c0.1,0,0.2,0,0.3,0.2
		c-0.3,0-0.6-0.1-0.8-0.1c-0.8-0.1-1.6-0.2-2.4-0.3C51.4,46.8,50.8,46.9,50.2,47.2"/>
	<path class="st0" d="M43.8,79.3c0.1,0.1,0.1,0.3,0.2,0.4c0.2,0.6,0.5,1.2,0.7,1.8c0.4,0.8,0.8,1.6,1.7,2.1
		c-0.2,0.1-0.4-0.1-0.5-0.1c-0.4-0.3-0.8-0.8-1-1.2c-0.5-0.9-0.9-1.8-1.2-2.8C43.8,79.4,43.7,79.4,43.8,79.3"/>
	<path class="st0" d="M65.4,49.7c-0.8-0.1-1.7,0-2.5,0.2c-0.8,0.2-1.5,0.7-2.2,1C61.9,49.9,64.4,49.2,65.4,49.7"/>
	<path class="st0" d="M43.9,72.5c-1.4-0.5-3.3-2.5-3.4-3.7c0.3,0.4,0.4,0.8,0.6,1.2c0.2,0.3,0.5,0.7,0.8,1c0.3,0.3,0.6,0.6,1,0.8
		C43.2,72.1,43.6,72.2,43.9,72.5"/>
	<path class="st0" d="M73,78.6c-0.1,0.5-0.2,1.1-0.2,1.6c-0.1,0.8-0.4,1.4-0.9,1.9c-0.1,0.1-0.1,0.2-0.3,0.2c-0.1-0.1,0-0.2,0-0.2
		c0.8-0.7,1-1.7,1.1-2.7c0-0.3,0.1-0.6,0.1-0.9C73,78.6,73,78.6,73,78.6"/>
	<path class="st0" d="M38.5,69.6c0.2,0.1,0.2,0.2,0.3,0.4c0.2,0.7,0.6,1.2,1.1,1.6c0.3,0.3,0.7,0.5,1,0.8c0.1,0.1,0.2,0.1,0.3,0.3
		c-0.1,0.1-0.2,0-0.2-0.1c-0.5-0.4-0.9-0.7-1.4-1.1C39,71,38.7,70.4,38.5,69.6"/>
	<path class="st0" d="M61.9,48.3c0.4-0.2,0.7-0.3,1.1-0.5c0.3-0.1,0.5-0.2,0.8-0.3c0.6-0.2,1.3-0.1,1.9,0c0,0,0.1,0,0.1,0.1
		c-0.1,0.1-0.1,0-0.2,0c-1-0.3-1.9,0-2.7,0.4C62.5,48.2,62.2,48.4,61.9,48.3C61.9,48.4,61.9,48.4,61.9,48.3"/>
	<path class="st0" d="M44.3,84.5c-0.8-0.2-2-2.3-2-3.3C42.7,82.4,43.2,83.6,44.3,84.5"/>
	<path class="st0" d="M81.6,70.2c-0.1,1.4-0.9,2.4-1.8,3.3C80.6,72.5,81.3,71.5,81.6,70.2"/>
	<path class="st0" d="M50.5,45c0.6-0.6,2.9-0.6,3.8-0.1C53.1,44.7,51.8,44.5,50.5,45"/>
	<path class="st0" d="M71.2,92.9c-0.2-0.2-0.4-0.5-0.4-0.9c0.2,0.3,0.3,0.5,0.5,0.8C71.3,92.9,71.3,92.9,71.2,92.9"/>
	<path class="st0" d="M29.7,64.1c0.4-0.2,0.5-0.2,0.9-0.1c0,0,0,0.1-0.1,0.1C30.2,64.1,30,64.1,29.7,64.1"/>
	<path class="st0" d="M75.1,43.8c0.3-0.2,0.5-0.4,0.9-0.5C75.7,43.6,75.5,43.8,75.1,43.8"/>
	<path class="st0" d="M75,42.6c-0.1,0.3-0.1,0.6-0.5,0.9C74.7,43.1,74.8,42.8,75,42.6"/>
	<path class="st0" d="M70.2,92.4c0,0.3,0.1,0.6,0,0.9C70,93,70,92.7,70.2,92.4"/>
	<path class="st0" d="M29.9,62.9c0.3,0,0.5,0.2,0.7,0.3c0,0,0.1,0.1,0,0.1c0,0-0.1,0-0.1,0C30.3,63.3,30.1,63.1,29.9,62.9"/>
	<path class="st0" d="M88.1,64.9c0.3-0.2,0.4-0.2,0.8-0.1C88.6,64.9,88.3,64.9,88.1,64.9"/>
	<path class="st0" d="M42.3,41.2c0.3,0.1,0.3,0.4,0.5,0.6C42.5,41.7,42.4,41.5,42.3,41.2"/>
	<path class="st0" d="M45.5,92.8c0,0.3-0.1,0.5-0.4,0.8C45.1,93.2,45.3,93,45.5,92.8"/>
	<path class="st0" d="M42.6,42.3c-0.2,0-0.4,0-0.6,0.1C42.3,42.1,42.3,42.1,42.6,42.3"/>
	<path class="st0" d="M46,92.7c0.1,0.2,0.2,0.3,0.3,0.5C45.9,93,45.9,93,46,92.7"/>
	<path class="st0" d="M87.7,64.6c0.1-0.3,0.2-0.4,0.2-0.7C88.1,64.3,88.1,64.3,87.7,64.6"/>
	<path class="st0" d="M58.6,77.9c0.2,0,0.4,0.1,0.4,0.3c0,0.2-0.2,0.4-0.4,0.4c-0.2,0-0.4-0.2-0.4-0.3C58.2,78,58.4,77.9,58.6,77.9"
		/>
</g>
</svg>
