<?xml version="1.0" encoding="utf-8"?>
<!-- Generator: Adobe Illustrator 27.3.0, SVG Export Plug-In . SVG Version: 6.00 Build 0)  -->
<svg version="1.1" id="Layer_1" xmlns="http://www.w3.org/2000/svg" xmlns:xlink="http://www.w3.org/1999/xlink" x="0px" y="0px"
	 viewBox="0 0 256 256" style="enable-background:new 0 0 256 256;" xml:space="preserve">
<style type="text/css">
	.st0{fill:#000014;}
	.st1{fill:#FFFFFF;}
	.st2{clip-path:url(#SVGID_00000039817834745755940080000009804736574926962061_);}
	.st3{fill:url(#SVGID_00000059299439873268298070000011269222675261835943_);}
	.st4{clip-path:url(#SVGID_00000010269480526075450460000006771150903486119103_);}
	.st5{fill:url(#SVGID_00000174565863310089049520000009649663718099748535_);}
	.st6{clip-path:url(#SVGID_00000142151761231848859430000012751611868593266598_);}
	.st7{fill:url(#SVGID_00000028302548977426012300000013778269431256715153_);}
	.st8{clip-path:url(#SVGID_00000101816997391058320290000002870665876036383398_);}
	.st9{fill:url(#SVGID_00000065055132089464520220000005863781371306790548_);}
	.st10{clip-path:url(#SVGID_00000178917878515409847640000002893065367343684284_);}
	.st11{fill:url(#SVGID_00000181078209254485106130000016321202968704020158_);}
	.st12{clip-path:url(#SVGID_00000181793510877137085740000014790034392984029065_);}
	.st13{fill:url(#SVGID_00000011746257037215114400000009240588991219732152_);}
	.st14{clip-path:url(#SVGID_00000006676069016709725590000006165984497127277218_);}
	.st15{fill:url(#SVGID_00000061447210303582837250000010796116848281843085_);}
	.st16{clip-path:url(#SVGID_00000031886190951669395190000006273253370327335356_);}
	.st17{fill:url(#SVGID_00000101069196325596042600000010657687735903220407_);}
</style>
<g>
	<rect y="0" class="st0" width="256" height="256"/>
</g>
<g>
	<g>
		<path class="st1" d="M105.1,101.3c5.1,0.3,10.2,0.6,15.3,0.4c0.4,0,0.8-0.1,1.2,0.3c-1.9,2.5-16.5,2.7-20.2,2.8
			c-2.4,0-7.1,0.3-10.1,0.2c-3.9-0.3-7.8-0.7-11.7-1c-5.3-0.6-10.6-1.3-15.8-2.6c-0.5-0.1-1.7-0.4-1.9,0c-0.1,0.3,0.1,0.5,0.3,0.6
			c0.6,0.4,1.4,0.6,1.9,1c2.8,2.1,6.1,3.5,9,5.5c3.5,2.4,7.6,3.9,11.7,5.2c1.7,0.4,5,1.5,7.1,1.8c1.8,0.3,3.6,0.7,5.5,0.4
			c13.9-1.9,28.3-3.2,42.2-1.7c-3.9,3.8-9.4,5.5-14.5,7c-7.2,2.3-14.8,3.3-22.1,5.2c-5.1,1.3-9.7,4-13.6,7.5
			c-2.2,1.8-3.7,4.2-5.2,6.6c-0.2,0.4-0.5,0.5-0.9,0.3c-0.7-0.3-1.4-0.5-2.2-0.7c-10.5-2.6-24.1-3.5-31.3,6.1
			c-6.6,8.9-0.3,15.5,2.6,24c1.8,5.2-3,9.3-8,8.9c-5.3-0.3-10-2.2-14.1-5.6c-0.2-0.2-0.4-0.4-0.8-0.3c-0.2,0.6-0.1,1.4-0.3,2
			c-0.3,1.5,0,2.9,0.7,4.2c2.1,5,5.6,9.7,10.8,11.7c11.5,6,31.5,0.4,30.1-15c-0.5-4.3-2.1-8.5-4-12.4c-1.1-2.4-2.3-4.8-2.8-7.4
			c-2.1-9.5,9.8-12.4,17.1-11.4c0.3,0,0.7,0.1,1,0.1c0.9,0,0.9,0,0.7,0.9c-0.9,6.3,0.9,11.9,4.8,16.8c1.4,1.8,3,3.4,4.6,5
			c0.3,0.3,0.5,0.6,0.4,1.1c-0.7,6.3-4.1,11.7-6.8,17.2c-3.3,6.9-5.6,14.3-9.2,21.1c-1.1,2.1-2.4,4.1-4.5,5.3
			c-2.8,1.7-5.8,3-8.9,4.2c-0.5,0.2-0.7,0.5-0.6,1c0.5,3.6,1.7,7.1,3.7,10.2c0.5,0.9,0.8,0.9,1.6,0.2c14.5-10.8,16.9-18.1,25.2-33.2
			c2.1-4.4,6-7.5,9.8-10.4c3.2-2.4,6.4-4.8,9.3-7.5c1.2-1.1,2.5-2.1,3.3-3.6c2-3.4,3.4-7,4.6-10.7c1.5-4,2.1-8.2,3.4-12.2
			c0.1-0.3,0.2-0.6,0.6-0.7c0.6,0.8,0.9,1.7,0.9,2.7c0.1,2.2,0,4.4-0.3,6.6c-0.1,0.7,0.1,1.2,0.9,0.6c9.8-5.3,21.5-4,32.2-5.1
			c1.7-0.1,3.4-0.6,5-0.9c4.7-1.1,9.3-2.4,13.6-4.7c2.2-1.1,4.1-2.5,6-3.9c1.4-1.1,2.3-2.6,3.6-3.7c0.3-0.2,0.3-0.5-0.1-0.7
			c-2-0.9-4.1-1.5-6-2.6c-2.8-1.5-6-3.1-7.5-6.1c-0.1-0.2-0.2-0.4,0-0.6c0.3-0.3,1.2,0.2,1.5,0.4c8.4,4.8,20.8,9.8,29.7,3.8
			c5.1-3.5,11.4-4,17.4-4.6c2.9-0.3,5.8-0.4,8.6-0.3c0.9,0,1.4,0.4,1.7,1.2c0.7,1.6,1.4,3.3,2,5c1.3,3.7,2.8,7.3,3.9,11.1
			c0.3,1.1,0.3,1.2-0.8,1.6c-1.8,0.6-3.5,1.2-5.3,1.6c-0.7,0.1-1.5,0.4-2.2,0.6c-1.6,0.6-1.9,0.9-1.6,2.7c0.4,2.1,0.9,7.1,2.4,8.4
			c0.8,0.6,1.6-0.4,2.3-0.7c2.8-1.5,5.3-3.4,7.9-5.1c1.8-1.2,3.5-2.3,5.1-3.7c0.5-0.4,1-1,0.9-1.7c-0.6-4.3-1.8-8.5-3-12.6
			c-1.4-4.3-2.8-8.7-4.7-12.8c-0.8-1.7-1.9-2.8-3.7-3.3c-9.3-2.7-19.1-2.2-28.7-2.9c-0.9-0.1-1.8-0.2-2.5-0.9
			c-3.4-3.2-5.6-7.4-8.4-11.1c-2.3-3.4-6.1-5-10-5.9c-0.4-0.1-0.9-0.2-1.2-0.6c1.4-1.2,7.5,0.2,9.3,0.8c0.9,0.3,1,0.2,0.9-0.8
			c-0.4-3.2-0.6-6.5-0.6-9.8c0-0.5-0.1-0.9-0.6-1.2c-1.6-0.7-2.9-1.8-4.1-3c-2.3-2.4-3.2-5.2-2.5-8.5c0.3-1.3,1-1.8,2.1-2.3
			c0.1,0.3,0,0.5-0.1,0.7c-1.6,3.6,1.5,8.8,5,10.2c1.7,0.7,3.3,1.5,4.8,2.6c2.9,2.1,5.7,4.5,8.2,7.2c3.3,3.2,1.4,5,4,6.1
			c1.8,0.7,3.7,1.2,5.7,1.3c2-0.1,3.6-1.6,4.8-3.1c1.1-1.4,1-2.8,0.2-4.3c-0.5-1.1-1-2.1-1.5-3.2c-2.1-5.1-4.5-10.1-5.6-15.5
			c-0.2-1.2-0.4-2.4-1-3.5c-0.6-1.2-0.5-1.5,0.8-1.8c1.8-0.4,3.6-0.8,5.4-1.2c0.4-0.1,0.8-0.1,1.1-0.5c0-0.2-0.1-0.3-0.3-0.4
			c-0.9-0.4-1.7-1.1-2.5-1.7c-1.3-0.9-2.6-1.7-3.8-2.7c-0.8-0.7-1.1-0.7-1.8,0c-1,0.9-1.9,1.7-2.8,2.6c-0.4,0.3-0.7,0.7-1.2,0.8
			c-1,0.2-1.9,0.4-3,0.4c-0.2,0-0.4,0.1-0.6-0.3c0.2-0.3,0.5-0.5,0.8-0.7c3-1.8,5.5-4.3,8.5-6.1c1.6-1.3-5.8-1-6.3-0.8
			c-0.6,0.1-1.2,0.2-1.7,0c-4.3-1.4-8.6-2.6-13.2-2.1c-13.1,0.7-23.4,11.2-32.3,19.8c-4,3.9-7.7,8.1-11.7,12.1
			c-0.5,0.4-0.8,0.4-1.1-0.2c-1.2-2.5-2.2-5.1-2.7-7.9c-0.7-4.7-0.4-9.4,0.6-14c0.2-0.7,0-0.9-0.7-1c-19.6-3.8-38.1-12.6-53.7-25
			c-6.3-5-12.1-10.6-17.7-16.4c-0.2-0.3-0.5-0.6-0.9-0.5c2.1,18.1,20.8,33.5,36.3,41.2c0.8,0.4,1.6,0.6,2.5,0.8
			c5.3,0.8,10.7,1,16,1.6c0.9,0.1,1.4,0.6,1.8,1.4c0.6,1.3,0.9,2.8,1.6,4.1c6.3,12,15.3,25.4,27.2,32.3c0.2,0.1,0.4,0.2,0.3,0.5
			c-4.1,1.2-9.6-3.9-12.5-6.4c-5.7-5.1-10.4-11.2-14.5-17.6c-1.3-2-3.6-5.9-4.7-8.7c-0.6-1.5-1.5-2.2-3.1-2.3
			c-30.8-2.3-61-10.5-89.2-23.2c-4.8-2.1-9.3-4.8-14-7.1c-3.2-1.5-6.4-3.1-9.5-4.9c-0.3,0.4-0.2,0.7-0.2,1C13,48.4,20.4,54.2,27,59
			c19.1,12.4,40.9,19.8,62.9,25.2c5.7,1.2,11.3,3.1,17.1,3.7c0.5,0,1.1,0,1.5,0.4c-0.1,0.4-0.4,0.5-0.6,0.6c-3.1,1-6.4,0.6-9.7,0.5
			c-17.7-1.4-35.1-6-51.9-11.4c-4.2-1.4-8.4-2.6-12.5-4.2c-3-1-6-2.4-9-3.3c-0.1,0.4,0.1,0.6,0.3,0.8c7.2,10.7,19.1,17,30.9,21.4
			c1.5,0.6,3.1,0.9,4.6,1.6c1.2,0.5,2.5,0.9,3.7,1.3C77.6,98.9,91.4,100.8,105.1,101.3L105.1,101.3z"/>
		<path class="st1" d="M197.2,146.3C197.2,146.3,197.2,146.4,197.2,146.3c3.7,0.3,7.4,0.6,11.1,1.3c0.7,0.1,0.8,0.3,0.5,1
			c-1.7,3.7-4.1,7.1-6.3,10.6c-0.7,1.1-1.4,2.1-2.2,3.1c-0.6,0.8-1.4,1.1-2.4,0.9c-1.6-0.3-3.2-0.7-4.8-1.1c-1.3-0.4-2.7-0.8-4-1.3
			c-0.4-0.1-0.7-0.2-1,0.2c-1.6,1.8-3,3.8-3.6,6.2c-0.1,0.6-0.5,1.2-0.5,1.9c0,0.7,0.1,0.9,0.8,0.9c2.8,0,5.7,0,8.5-0.2
			c2.8-0.1,5.7-0.2,8.5-0.6c3.1-0.5,7.1-6.7,9.2-9.2c3.2-4.5,6.6-8.9,9.5-13.6c0.5-0.9,0.5-1.4-0.3-1.9c-4.1-2.8-8.8-4.4-13.3-6.3
			c-0.4-0.2-0.8-0.2-1.1,0.1c-2.5,1.7-5.3,3.1-8.4,3.6c-1.8,0.3-3.5,0.4-5.3,0.2c-0.7-0.1-1.1,0.2-1.4,0.8c-0.3,0.6-0.6,1.2-1,1.7
			c-0.8,0.9,0.5,1,1.1,1C192.8,146,195,146.2,197.2,146.3L197.2,146.3z"/>
		<path class="st1" d="M95.5,67.2c-0.2-0.4-0.5-0.5-0.8-0.6c-9.6-4.9-18.8-10.9-26.6-18.3c-0.1-0.1-0.3-0.3-0.5-0.2
			c-0.4,0.2-0.2,0.6-0.2,0.9c0.7,3.6,3.4,12.1,7.1,13.5c6.5,1.8,13.1,3.2,19.6,4.8C94.6,67.3,95,67.5,95.5,67.2L95.5,67.2z"/>
		<path class="st1" d="M141.2,161.4C141.2,161.4,141.2,161.4,141.2,161.4c-5.4,0.3-10.9,1-16,2.7c-0.7,0.3-1.1,0.7-1.4,1.5
			c-0.7,1.6-0.5,3.4-1.3,5.1c-0.7,1.4-1.1,2.9-2,4.2c-1.3,1.9-2.9,3.7-4.7,5.2c-0.9,0.8-1.4,1.7-1.7,2.7c-1.5,6.6-1.9,13.3-3,20
			c-0.1,0.4-0.2,0.7-0.6,1c-0.7,0.5-1.4,0.9-2.2,1.2c-2.3,0.9-4.6,1.8-6.9,2.7c-0.9,0.4-1,0.5-0.9,1.5c0.3,2.9,0.9,5.8,2.3,8.5
			c0.7,1.7,2.1,0.1,3.2-0.4c2.7-1.7,5.1-3.7,7.6-5.8c1.1-0.9,2.2-1.8,3.1-2.9c1.3-1.6,1.9-3.6,2.4-5.5c1.5-5.2,2.9-10.5,4.3-15.8
			c0.5-1.8,1.2-3.4,2.7-4.6c3.2-2.8,6.9-5,9.7-8.2c3-3.6,5-7.9,6.5-12.3C142.3,161.3,141.8,161.4,141.2,161.4L141.2,161.4z"/>
	</g>
	<g>
		<defs>
			<path id="SVGID_1_" d="M229.7,119.5c1.3,0.2,2.7,0.5,4,0.9c-1.2-16.3-6.1-31.9-14.3-45.8l-0.9,0.2c-1,0.2-2.1,0.5-3.1,0.7
				C223.3,88.5,228.4,103.5,229.7,119.5L229.7,119.5z"/>
		</defs>
		<clipPath id="SVGID_00000060721039000821603070000010919445618639136930_">
			<use xlink:href="#SVGID_1_"  style="overflow:visible;"/>
		</clipPath>
		<g style="clip-path:url(#SVGID_00000060721039000821603070000010919445618639136930_);">
			
				<linearGradient id="SVGID_00000155142802974922916580000004359936821253137814_" gradientUnits="userSpaceOnUse" x1="-16.9697" y1="213.4241" x2="272.9645" y2="46.0299" gradientTransform="matrix(1 0 0 -1 0 258)">
				<stop  offset="4.000000e-02" style="stop-color:#925B27"/>
				<stop  offset="0.3" style="stop-color:#FFDB8C"/>
				<stop  offset="0.37" style="stop-color:#D3A763"/>
				<stop  offset="0.44" style="stop-color:#AF7E42"/>
				<stop  offset="0.49" style="stop-color:#9A642E"/>
				<stop  offset="0.52" style="stop-color:#925B27"/>
				<stop  offset="0.57" style="stop-color:#A0682B"/>
				<stop  offset="0.66" style="stop-color:#C68D35"/>
				<stop  offset="0.76" style="stop-color:#F6BC43"/>
				<stop  offset="0.9" style="stop-color:#925B27"/>
			</linearGradient>
			
				<rect x="5.5" y="5.7" style="fill:url(#SVGID_00000155142802974922916580000004359936821253137814_);" width="245.1" height="245.1"/>
		</g>
	</g>
	<g>
		<defs>
			<path id="SVGID_00000062193139618896284890000014640889085970207920_" d="M43.7,70.8c-1.2-0.6-2.4-1.2-3.6-1.7
				c-0.8,1.2-1.6,2.4-2.4,3.6c1.3,0.4,2.6,0.9,3.9,1.3C42.2,72.9,42.9,71.8,43.7,70.8L43.7,70.8z"/>
		</defs>
		<clipPath id="SVGID_00000143585553855455641820000004455966811034447789_">
			<use xlink:href="#SVGID_00000062193139618896284890000014640889085970207920_"  style="overflow:visible;"/>
		</clipPath>
		<g style="clip-path:url(#SVGID_00000143585553855455641820000004455966811034447789_);">
			
				<linearGradient id="SVGID_00000095334855372249020120000003089446746931988357_" gradientUnits="userSpaceOnUse" x1="-16.9697" y1="213.4241" x2="272.9645" y2="46.0299" gradientTransform="matrix(1 0 0 -1 0 258)">
				<stop  offset="4.000000e-02" style="stop-color:#925B27"/>
				<stop  offset="0.3" style="stop-color:#FFDB8C"/>
				<stop  offset="0.37" style="stop-color:#D3A763"/>
				<stop  offset="0.44" style="stop-color:#AF7E42"/>
				<stop  offset="0.49" style="stop-color:#9A642E"/>
				<stop  offset="0.52" style="stop-color:#925B27"/>
				<stop  offset="0.57" style="stop-color:#A0682B"/>
				<stop  offset="0.66" style="stop-color:#C68D35"/>
				<stop  offset="0.76" style="stop-color:#F6BC43"/>
				<stop  offset="0.9" style="stop-color:#925B27"/>
			</linearGradient>
			
				<rect x="5.5" y="5.7" style="fill:url(#SVGID_00000095334855372249020120000003089446746931988357_);" width="245.1" height="245.1"/>
		</g>
	</g>
	<g>
		<defs>
			<path id="SVGID_00000160149118390554427770000003977627808020161725_" d="M69.2,211.7c-6.5-4.6-12.4-9.9-17.7-15.9
				c-0.1,0-0.3,0-0.4,0c-1.8,0-3.5-0.2-5.2-0.5c2.2,2.7,4.6,5.4,7.2,7.9c3.8,3.8,7.8,7.3,12,10.4C66.5,213,67.9,212.4,69.2,211.7
				L69.2,211.7z"/>
		</defs>
		<clipPath id="SVGID_00000103981475346921412000000011701438426982761355_">
			<use xlink:href="#SVGID_00000160149118390554427770000003977627808020161725_"  style="overflow:visible;"/>
		</clipPath>
		<g style="clip-path:url(#SVGID_00000103981475346921412000000011701438426982761355_);">
			
				<linearGradient id="SVGID_00000149372275074940902670000004564634123360886719_" gradientUnits="userSpaceOnUse" x1="-16.9697" y1="213.4241" x2="272.9645" y2="46.0299" gradientTransform="matrix(1 0 0 -1 0 258)">
				<stop  offset="4.000000e-02" style="stop-color:#925B27"/>
				<stop  offset="0.3" style="stop-color:#FFDB8C"/>
				<stop  offset="0.37" style="stop-color:#D3A763"/>
				<stop  offset="0.44" style="stop-color:#AF7E42"/>
				<stop  offset="0.49" style="stop-color:#9A642E"/>
				<stop  offset="0.52" style="stop-color:#925B27"/>
				<stop  offset="0.57" style="stop-color:#A0682B"/>
				<stop  offset="0.66" style="stop-color:#C68D35"/>
				<stop  offset="0.76" style="stop-color:#F6BC43"/>
				<stop  offset="0.9" style="stop-color:#925B27"/>
			</linearGradient>
			
				<rect x="5.5" y="5.7" style="fill:url(#SVGID_00000149372275074940902670000004564634123360886719_);" width="245.1" height="245.1"/>
		</g>
	</g>
	<g>
		<defs>
			<path id="SVGID_00000126316134021576877780000006353289176763156415_" d="M225.6,158.2c-12.8,41.7-51.7,72.2-97.6,72.2
				c-16.8,0-32.7-4.1-46.7-11.3c-0.8,1-1.8,2-2.7,3c15,7.9,31.9,12.2,49.4,12.2c28.3,0,54.9-11,75-31c11.2-11.2,19.6-24.5,24.8-39
				C226.7,162.9,226.1,160.7,225.6,158.2L225.6,158.2z"/>
		</defs>
		<clipPath id="SVGID_00000059294380488940121270000016641628066899361464_">
			<use xlink:href="#SVGID_00000126316134021576877780000006353289176763156415_"  style="overflow:visible;"/>
		</clipPath>
		<g style="clip-path:url(#SVGID_00000059294380488940121270000016641628066899361464_);">
			
				<linearGradient id="SVGID_00000106839776266921896870000007728568922013419185_" gradientUnits="userSpaceOnUse" x1="-16.9697" y1="213.4241" x2="272.9645" y2="46.0299" gradientTransform="matrix(1 0 0 -1 0 258)">
				<stop  offset="4.000000e-02" style="stop-color:#925B27"/>
				<stop  offset="0.3" style="stop-color:#FFDB8C"/>
				<stop  offset="0.37" style="stop-color:#D3A763"/>
				<stop  offset="0.44" style="stop-color:#AF7E42"/>
				<stop  offset="0.49" style="stop-color:#9A642E"/>
				<stop  offset="0.52" style="stop-color:#925B27"/>
				<stop  offset="0.57" style="stop-color:#A0682B"/>
				<stop  offset="0.66" style="stop-color:#C68D35"/>
				<stop  offset="0.76" style="stop-color:#F6BC43"/>
				<stop  offset="0.9" style="stop-color:#925B27"/>
			</linearGradient>
			
				<rect x="5.5" y="5.7" style="fill:url(#SVGID_00000106839776266921896870000007728568922013419185_);" width="245.1" height="245.1"/>
		</g>
	</g>
	<g>
		<defs>
			<path id="SVGID_00000060735053585180451490000011634404661485670078_" d="M54.5,57.5c3.3-3.5,6.9-6.7,10.7-9.6
				c0.3-1.2,1.2-1.7,1.6-1.9l0.1,0c0.3-0.1,0.6-0.2,0.9-0.2c0.1,0,0.1,0,0.2,0c2.1-1.5,4.2-2.9,6.4-4.3c-0.6-1.2-1.2-2.4-1.7-3.6
				c-7,4.3-13.5,9.5-19.5,15.4c-0.9,0.9-1.7,1.8-2.6,2.7C51.8,56.5,53.1,57,54.5,57.5L54.5,57.5z"/>
		</defs>
		<clipPath id="SVGID_00000082367106343035395190000008707065819729076872_">
			<use xlink:href="#SVGID_00000060735053585180451490000011634404661485670078_"  style="overflow:visible;"/>
		</clipPath>
		<g style="clip-path:url(#SVGID_00000082367106343035395190000008707065819729076872_);">
			
				<linearGradient id="SVGID_00000155859705388001586690000014798820619682897829_" gradientUnits="userSpaceOnUse" x1="-16.9697" y1="213.4241" x2="272.9645" y2="46.0299" gradientTransform="matrix(1 0 0 -1 0 258)">
				<stop  offset="4.000000e-02" style="stop-color:#925B27"/>
				<stop  offset="0.3" style="stop-color:#FFDB8C"/>
				<stop  offset="0.37" style="stop-color:#D3A763"/>
				<stop  offset="0.44" style="stop-color:#AF7E42"/>
				<stop  offset="0.49" style="stop-color:#9A642E"/>
				<stop  offset="0.52" style="stop-color:#925B27"/>
				<stop  offset="0.57" style="stop-color:#A0682B"/>
				<stop  offset="0.66" style="stop-color:#C68D35"/>
				<stop  offset="0.76" style="stop-color:#F6BC43"/>
				<stop  offset="0.9" style="stop-color:#925B27"/>
			</linearGradient>
			
				<rect x="5.5" y="5.7" style="fill:url(#SVGID_00000155859705388001586690000014798820619682897829_);" width="245.1" height="245.1"/>
		</g>
	</g>
	<g>
		<defs>
			<path id="SVGID_00000114067204266742739930000015342084282531985539_" d="M31.8,171.8c1.8,1.5,3.7,2.6,5.6,3.5
				c-7.3-14.1-11.5-30-11.5-47c0-15.5,3.5-30.2,9.7-43.4c-1.1-0.8-2.2-1.6-3.2-2.4C25.6,96.6,22,112.1,22,128.3
				c0,15.1,3.1,29.6,9,43C31.4,171.5,31.6,171.7,31.8,171.8L31.8,171.8z"/>
		</defs>
		<clipPath id="SVGID_00000105398106827494533590000007118511696619559311_">
			<use xlink:href="#SVGID_00000114067204266742739930000015342084282531985539_"  style="overflow:visible;"/>
		</clipPath>
		<g style="clip-path:url(#SVGID_00000105398106827494533590000007118511696619559311_);">
			
				<linearGradient id="SVGID_00000064343537458861624640000015584059775270559882_" gradientUnits="userSpaceOnUse" x1="-16.9697" y1="213.4241" x2="272.9645" y2="46.0299" gradientTransform="matrix(1 0 0 -1 0 258)">
				<stop  offset="4.000000e-02" style="stop-color:#925B27"/>
				<stop  offset="0.3" style="stop-color:#FFDB8C"/>
				<stop  offset="0.37" style="stop-color:#D3A763"/>
				<stop  offset="0.44" style="stop-color:#AF7E42"/>
				<stop  offset="0.49" style="stop-color:#9A642E"/>
				<stop  offset="0.52" style="stop-color:#925B27"/>
				<stop  offset="0.57" style="stop-color:#A0682B"/>
				<stop  offset="0.66" style="stop-color:#C68D35"/>
				<stop  offset="0.76" style="stop-color:#F6BC43"/>
				<stop  offset="0.9" style="stop-color:#925B27"/>
			</linearGradient>
			
				<rect x="5.5" y="5.7" style="fill:url(#SVGID_00000064343537458861624640000015584059775270559882_);" width="245.1" height="245.1"/>
		</g>
	</g>
	<g>
		<defs>
			<path id="SVGID_00000090253491916569199760000004860756821880425375_" d="M84.1,36.1c13.3-6.4,28.2-9.9,43.9-9.9
				c30.2,0,57.4,13.2,76.1,34.1c0.7,0.2,1.3,0.4,2,0.6c0.1,0,0.3,0,0.5-0.1l0.1,0c0.5-0.1,1.3-0.2,2.9-0.2c-2.1-2.5-4.3-4.9-6.6-7.2
				c-20-20-46.6-31-75-31c-16.6,0-32.6,3.8-47,10.9C82.1,34.2,83.1,35.2,84.1,36.1L84.1,36.1z"/>
		</defs>
		<clipPath id="SVGID_00000066489382838091151740000009902980841093030061_">
			<use xlink:href="#SVGID_00000090253491916569199760000004860756821880425375_"  style="overflow:visible;"/>
		</clipPath>
		<g style="clip-path:url(#SVGID_00000066489382838091151740000009902980841093030061_);">
			
				<linearGradient id="SVGID_00000119110835597224666730000015128959958468749232_" gradientUnits="userSpaceOnUse" x1="-16.9697" y1="213.4241" x2="272.9645" y2="46.0299" gradientTransform="matrix(1 0 0 -1 0 258)">
				<stop  offset="4.000000e-02" style="stop-color:#925B27"/>
				<stop  offset="0.3" style="stop-color:#FFDB8C"/>
				<stop  offset="0.37" style="stop-color:#D3A763"/>
				<stop  offset="0.44" style="stop-color:#AF7E42"/>
				<stop  offset="0.49" style="stop-color:#9A642E"/>
				<stop  offset="0.52" style="stop-color:#925B27"/>
				<stop  offset="0.57" style="stop-color:#A0682B"/>
				<stop  offset="0.66" style="stop-color:#C68D35"/>
				<stop  offset="0.76" style="stop-color:#F6BC43"/>
				<stop  offset="0.9" style="stop-color:#925B27"/>
			</linearGradient>
			
				<rect x="5.5" y="5.7" style="fill:url(#SVGID_00000119110835597224666730000015128959958468749232_);" width="245.1" height="245.1"/>
		</g>
	</g>
	<g>
		<defs>
			<path id="SVGID_00000140706749781424327900000015951009416603337380_" d="M232.3,140.5c-0.3-0.9-0.7-1.8-1-2.7
				c-0.4-1.2-0.9-2.3-1.4-3.5c-0.3,5.3-1,10.5-2.1,15.6c0.1-0.1,0.3-0.1,0.4-0.2c0.7-0.3,1.6-0.6,2.5-0.7c0.4-0.1,0.9-0.2,1.3-0.3
				c0.4-2,0.7-4.1,1-6.1C232.8,141.9,232.5,141.2,232.3,140.5L232.3,140.5z"/>
		</defs>
		<clipPath id="SVGID_00000105394433528122580610000015471801134828736945_">
			<use xlink:href="#SVGID_00000140706749781424327900000015951009416603337380_"  style="overflow:visible;"/>
		</clipPath>
		<g style="clip-path:url(#SVGID_00000105394433528122580610000015471801134828736945_);">
			
				<linearGradient id="SVGID_00000000219998769073974940000002085479648997661600_" gradientUnits="userSpaceOnUse" x1="-16.9697" y1="213.4241" x2="272.9645" y2="46.0299" gradientTransform="matrix(1 0 0 -1 0 258)">
				<stop  offset="4.000000e-02" style="stop-color:#925B27"/>
				<stop  offset="0.3" style="stop-color:#FFDB8C"/>
				<stop  offset="0.37" style="stop-color:#D3A763"/>
				<stop  offset="0.44" style="stop-color:#AF7E42"/>
				<stop  offset="0.49" style="stop-color:#9A642E"/>
				<stop  offset="0.52" style="stop-color:#925B27"/>
				<stop  offset="0.57" style="stop-color:#A0682B"/>
				<stop  offset="0.66" style="stop-color:#C68D35"/>
				<stop  offset="0.76" style="stop-color:#F6BC43"/>
				<stop  offset="0.9" style="stop-color:#925B27"/>
			</linearGradient>
			
				<rect x="5.5" y="5.7" style="fill:url(#SVGID_00000000219998769073974940000002085479648997661600_);" width="245.1" height="245.1"/>
		</g>
	</g>
</g>
</svg>
